G04*
G04 #@! TF.GenerationSoftware,Altium Limited,Altium Designer,23.3.1 (30)*
G04*
G04 Layer_Color=65535*
%FSLAX25Y25*%
%MOIN*%
G70*
G04*
G04 #@! TF.SameCoordinates,EAEFBA70-669C-4C4F-B3AB-389A7F0D303D*
G04*
G04*
G04 #@! TF.FilePolarity,Positive*
G04*
G01*
G75*
%ADD10C,0.00787*%
%ADD11C,0.01000*%
%ADD12C,0.00500*%
%ADD13C,0.01181*%
%ADD14C,0.00591*%
%ADD15C,0.00700*%
%ADD16C,0.00394*%
%ADD17R,0.11024X0.03150*%
G36*
X53543Y334646D02*
X46428D01*
Y335597D01*
X52702D01*
Y338766D01*
X53543D01*
Y334646D01*
D02*
G37*
G36*
Y323303D02*
X47412Y320177D01*
X53543D01*
Y319291D01*
X46428D01*
Y320625D01*
X52068Y323488D01*
X46428D01*
Y324374D01*
X53543D01*
Y323303D01*
D02*
G37*
G36*
Y307751D02*
X46428D01*
Y312199D01*
X47269D01*
Y308702D01*
X49215D01*
Y311959D01*
X50057D01*
Y308702D01*
X52702D01*
Y312199D01*
X53543D01*
Y307751D01*
D02*
G37*
G36*
X48745Y306833D02*
X48865Y306822D01*
X48996Y306800D01*
X49139Y306767D01*
X49303Y306723D01*
X49455Y306669D01*
X49477Y306658D01*
X49521Y306636D01*
X49598Y306603D01*
X49696Y306548D01*
X49805Y306483D01*
X49926Y306406D01*
X50046Y306319D01*
X50155Y306221D01*
X50166Y306199D01*
X50210Y306155D01*
X50275Y306078D01*
X50363Y305969D01*
X50450Y305849D01*
X50538Y305696D01*
X50625Y305532D01*
X50701Y305357D01*
X50712Y305335D01*
X50734Y305270D01*
X50756Y305160D01*
X50789Y305018D01*
X50833Y304832D01*
X50854Y304625D01*
X50876Y304384D01*
X50887Y304111D01*
Y303313D01*
X53543D01*
Y302362D01*
X46428D01*
Y304362D01*
X46439Y304515D01*
X46450Y304679D01*
X46472Y304854D01*
X46504Y305029D01*
X46537Y305204D01*
Y305226D01*
X46559Y305280D01*
X46581Y305368D01*
X46625Y305466D01*
X46668Y305597D01*
X46723Y305729D01*
X46799Y305860D01*
X46876Y305991D01*
X46887Y306013D01*
X46920Y306056D01*
X46985Y306133D01*
X47062Y306221D01*
X47160Y306319D01*
X47280Y306428D01*
X47412Y306526D01*
X47565Y306614D01*
X47587Y306625D01*
X47641Y306647D01*
X47729Y306691D01*
X47849Y306734D01*
X47991Y306767D01*
X48166Y306811D01*
X48362Y306833D01*
X48581Y306843D01*
X48603D01*
X48658D01*
X48745Y306833D01*
D02*
G37*
G36*
X53150Y269921D02*
X46034D01*
Y270872D01*
X52308D01*
Y274042D01*
X53150D01*
Y269921D01*
D02*
G37*
G36*
Y258578D02*
X47018Y255452D01*
X53150D01*
Y254567D01*
X46034D01*
Y255900D01*
X51674Y258764D01*
X46034D01*
Y259649D01*
X53150D01*
Y258578D01*
D02*
G37*
G36*
Y243026D02*
X46034D01*
Y247475D01*
X46876D01*
Y243977D01*
X48821D01*
Y247234D01*
X49663D01*
Y243977D01*
X52308D01*
Y247475D01*
X53150D01*
Y243026D01*
D02*
G37*
G36*
X48351Y242108D02*
X48472Y242097D01*
X48603Y242075D01*
X48745Y242043D01*
X48909Y241999D01*
X49062Y241944D01*
X49084Y241933D01*
X49127Y241911D01*
X49204Y241879D01*
X49302Y241824D01*
X49411Y241758D01*
X49532Y241682D01*
X49652Y241595D01*
X49761Y241496D01*
X49772Y241474D01*
X49816Y241430D01*
X49882Y241354D01*
X49969Y241245D01*
X50056Y241125D01*
X50144Y240971D01*
X50231Y240808D01*
X50308Y240633D01*
X50319Y240611D01*
X50341Y240545D01*
X50362Y240436D01*
X50395Y240294D01*
X50439Y240108D01*
X50461Y239900D01*
X50483Y239660D01*
X50494Y239387D01*
Y238589D01*
X53150D01*
Y237638D01*
X46034D01*
Y239638D01*
X46045Y239791D01*
X46056Y239955D01*
X46078Y240130D01*
X46111Y240305D01*
X46143Y240480D01*
Y240501D01*
X46165Y240556D01*
X46187Y240644D01*
X46231Y240742D01*
X46275Y240873D01*
X46329Y241004D01*
X46406Y241135D01*
X46482Y241267D01*
X46493Y241288D01*
X46526Y241332D01*
X46592Y241409D01*
X46668Y241496D01*
X46766Y241595D01*
X46887Y241704D01*
X47018Y241802D01*
X47171Y241890D01*
X47193Y241900D01*
X47247Y241922D01*
X47335Y241966D01*
X47455Y242010D01*
X47597Y242043D01*
X47772Y242086D01*
X47969Y242108D01*
X48187Y242119D01*
X48209D01*
X48264D01*
X48351Y242108D01*
D02*
G37*
G36*
X53937Y65861D02*
X46822D01*
Y70309D01*
X47663D01*
Y66812D01*
X49609D01*
Y70069D01*
X50450D01*
Y66812D01*
X53095D01*
Y70309D01*
X53937D01*
Y65861D01*
D02*
G37*
G36*
X49139Y64943D02*
X49259Y64932D01*
X49390Y64910D01*
X49532Y64877D01*
X49696Y64833D01*
X49849Y64779D01*
X49871Y64768D01*
X49915Y64746D01*
X49991Y64713D01*
X50090Y64659D01*
X50199Y64593D01*
X50319Y64517D01*
X50439Y64429D01*
X50549Y64331D01*
X50560Y64309D01*
X50603Y64265D01*
X50669Y64189D01*
X50756Y64079D01*
X50844Y63959D01*
X50931Y63806D01*
X51019Y63642D01*
X51095Y63467D01*
X51106Y63445D01*
X51128Y63380D01*
X51150Y63270D01*
X51183Y63128D01*
X51226Y62943D01*
X51248Y62735D01*
X51270Y62494D01*
X51281Y62221D01*
Y61423D01*
X53937D01*
Y60472D01*
X46822D01*
Y62473D01*
X46832Y62626D01*
X46843Y62790D01*
X46865Y62964D01*
X46898Y63139D01*
X46931Y63314D01*
Y63336D01*
X46953Y63391D01*
X46975Y63478D01*
X47018Y63577D01*
X47062Y63708D01*
X47117Y63839D01*
X47193Y63970D01*
X47270Y64101D01*
X47281Y64123D01*
X47313Y64167D01*
X47379Y64243D01*
X47455Y64331D01*
X47554Y64429D01*
X47674Y64538D01*
X47805Y64637D01*
X47958Y64724D01*
X47980Y64735D01*
X48035Y64757D01*
X48122Y64801D01*
X48243Y64844D01*
X48385Y64877D01*
X48559Y64921D01*
X48756Y64943D01*
X48975Y64954D01*
X48997D01*
X49051D01*
X49139Y64943D01*
D02*
G37*
G36*
X53937Y81413D02*
X47805Y78287D01*
X53937D01*
Y77402D01*
X46822D01*
Y78735D01*
X52461Y81599D01*
X46822D01*
Y82484D01*
X53937D01*
Y81413D01*
D02*
G37*
G36*
Y92756D02*
X46822D01*
Y93707D01*
X53095D01*
Y96877D01*
X53937D01*
Y92756D01*
D02*
G37*
%LPC*%
G36*
X48723Y305860D02*
X48603D01*
X48581D01*
X48537D01*
X48472Y305849D01*
X48384D01*
X48286Y305827D01*
X48177Y305805D01*
X48067Y305772D01*
X47969Y305729D01*
X47958Y305718D01*
X47925Y305707D01*
X47871Y305674D01*
X47805Y305630D01*
X47739Y305576D01*
X47663Y305510D01*
X47587Y305434D01*
X47521Y305346D01*
X47510Y305335D01*
X47499Y305302D01*
X47477Y305259D01*
X47444Y305204D01*
X47412Y305128D01*
X47368Y305029D01*
X47346Y304931D01*
X47313Y304821D01*
Y304811D01*
X47302Y304767D01*
X47291Y304701D01*
X47280Y304625D01*
X47269Y304515D01*
X47259Y304384D01*
X47248Y304242D01*
Y303313D01*
X50068D01*
Y304144D01*
X50057Y304275D01*
X50046Y304417D01*
X50035Y304570D01*
X50013Y304723D01*
X49980Y304865D01*
Y304876D01*
X49958Y304931D01*
X49936Y304996D01*
X49904Y305073D01*
X49860Y305171D01*
X49805Y305270D01*
X49740Y305368D01*
X49652Y305455D01*
X49641Y305466D01*
X49608Y305488D01*
X49565Y305532D01*
X49510Y305576D01*
X49445Y305619D01*
X49357Y305674D01*
X49182Y305761D01*
X49171D01*
X49139Y305772D01*
X49084Y305794D01*
X49018Y305816D01*
X48931Y305827D01*
X48832Y305849D01*
X48723Y305860D01*
D02*
G37*
G36*
X48329Y241135D02*
X48209D01*
X48187D01*
X48144D01*
X48078Y241125D01*
X47991D01*
X47892Y241103D01*
X47783Y241081D01*
X47674Y241048D01*
X47575Y241004D01*
X47564Y240993D01*
X47532Y240982D01*
X47477Y240950D01*
X47411Y240906D01*
X47346Y240851D01*
X47269Y240786D01*
X47193Y240709D01*
X47127Y240622D01*
X47116Y240611D01*
X47105Y240578D01*
X47084Y240534D01*
X47051Y240480D01*
X47018Y240403D01*
X46974Y240305D01*
X46952Y240206D01*
X46920Y240097D01*
Y240086D01*
X46909Y240042D01*
X46898Y239977D01*
X46887Y239900D01*
X46876Y239791D01*
X46865Y239660D01*
X46854Y239518D01*
Y238589D01*
X49674D01*
Y239419D01*
X49663Y239550D01*
X49652Y239693D01*
X49641Y239846D01*
X49619Y239999D01*
X49586Y240141D01*
Y240152D01*
X49565Y240206D01*
X49543Y240272D01*
X49510Y240348D01*
X49466Y240447D01*
X49411Y240545D01*
X49346Y240644D01*
X49259Y240731D01*
X49248Y240742D01*
X49215Y240764D01*
X49171Y240808D01*
X49116Y240851D01*
X49051Y240895D01*
X48963Y240950D01*
X48788Y241037D01*
X48778D01*
X48745Y241048D01*
X48690Y241070D01*
X48625Y241092D01*
X48537Y241103D01*
X48439Y241125D01*
X48329Y241135D01*
D02*
G37*
G36*
X49117Y63970D02*
X48997D01*
X48975D01*
X48931D01*
X48866Y63959D01*
X48778D01*
X48680Y63937D01*
X48570Y63915D01*
X48461Y63883D01*
X48363Y63839D01*
X48352Y63828D01*
X48319Y63817D01*
X48264Y63784D01*
X48199Y63740D01*
X48133Y63686D01*
X48057Y63620D01*
X47980Y63544D01*
X47915Y63456D01*
X47904Y63445D01*
X47893Y63413D01*
X47871Y63369D01*
X47838Y63314D01*
X47805Y63238D01*
X47762Y63139D01*
X47740Y63041D01*
X47707Y62932D01*
Y62921D01*
X47696Y62877D01*
X47685Y62811D01*
X47674Y62735D01*
X47663Y62626D01*
X47652Y62494D01*
X47641Y62352D01*
Y61423D01*
X50461D01*
Y62254D01*
X50450Y62385D01*
X50439Y62527D01*
X50428Y62680D01*
X50407Y62833D01*
X50374Y62975D01*
Y62986D01*
X50352Y63041D01*
X50330Y63107D01*
X50297Y63183D01*
X50254Y63281D01*
X50199Y63380D01*
X50133Y63478D01*
X50046Y63566D01*
X50035Y63577D01*
X50002Y63598D01*
X49959Y63642D01*
X49904Y63686D01*
X49838Y63730D01*
X49751Y63784D01*
X49576Y63872D01*
X49565D01*
X49532Y63883D01*
X49478Y63905D01*
X49412Y63926D01*
X49325Y63937D01*
X49226Y63959D01*
X49117Y63970D01*
D02*
G37*
%LPD*%
D10*
X195669Y240158D02*
G03*
X195669Y240158I-394J0D01*
G01*
X184941Y77953D02*
Y78740D01*
Y77953D01*
X162992Y117520D02*
Y138386D01*
X151969Y117520D02*
Y138386D01*
Y117520D02*
X162992D01*
X141339D02*
Y138386D01*
X130315Y117520D02*
Y138386D01*
Y117520D02*
X141339D01*
X273228Y340748D02*
X285827D01*
X273228D02*
Y360039D01*
X285827D01*
Y340748D02*
Y360039D01*
D11*
X170390Y192410D02*
G03*
X170587Y185288I4806J-3431D01*
G01*
X180003Y185542D02*
G03*
X179807Y192664I-4806J3431D01*
G01*
X148737Y192410D02*
G03*
X148933Y185288I4806J-3431D01*
G01*
X158350Y185542D02*
G03*
X158153Y192664I-4806J3431D01*
G01*
X210942Y192686D02*
G03*
X211138Y185564I4806J-3431D01*
G01*
X220554Y185818D02*
G03*
X220358Y192940I-4806J3431D01*
G01*
X190076Y192410D02*
G03*
X190272Y185288I4806J-3431D01*
G01*
X199688Y185542D02*
G03*
X199492Y192664I-4806J3431D01*
G01*
X292830Y338394D02*
G03*
X292830Y338394I-1803J0D01*
G01*
X118980Y183574D02*
G03*
X118783Y190696I-4806J3431D01*
G01*
X109367Y190442D02*
G03*
X109563Y183320I4806J-3431D01*
G01*
X1745Y321343D02*
X9245D01*
X1745Y305343D02*
X9245D01*
X1745D02*
Y336843D01*
X9245D01*
X45945Y463779D02*
X77945D01*
Y428315D02*
Y463779D01*
X45945Y428315D02*
Y463779D01*
X53543D02*
Y469685D01*
X71260D01*
Y463779D02*
Y469685D01*
X45945Y428315D02*
X77945D01*
X1351Y256619D02*
X8851D01*
X1351Y240619D02*
X8851D01*
X1351D02*
Y272119D01*
X8851D01*
X2139Y94954D02*
X9639D01*
X2139Y63454D02*
Y94954D01*
Y63454D02*
X9639D01*
X2139Y79454D02*
X9639D01*
X8268Y121929D02*
Y153929D01*
X43732D01*
X8268Y121929D02*
X43732D01*
X2362Y129528D02*
X8268D01*
X2362D02*
Y147244D01*
X8268D01*
X43732Y121929D02*
Y153929D01*
Y173110D02*
Y205110D01*
X2362Y198425D02*
X8268D01*
X2362Y180709D02*
Y198425D01*
Y180709D02*
X8268D01*
Y173110D02*
X43732D01*
X8268Y205110D02*
X43732D01*
X8268Y173110D02*
Y205110D01*
X310906Y409055D02*
X342905D01*
Y373590D02*
Y409055D01*
X310906Y373590D02*
Y409055D01*
X318504D02*
Y414961D01*
X336221D01*
Y409055D02*
Y414961D01*
X310906Y373590D02*
X342905D01*
X310906Y318504D02*
X342905D01*
Y283039D02*
Y318504D01*
X310906Y283039D02*
Y318504D01*
X318504D02*
Y324410D01*
X336221D01*
Y318504D02*
Y324410D01*
X310906Y283039D02*
X342905D01*
X211417Y263779D02*
Y468504D01*
X101575Y263779D02*
X211417D01*
X101575D02*
Y468504D01*
X211417D01*
X170276Y179134D02*
X180118D01*
X148622D02*
X158465D01*
X210827Y179409D02*
X220669D01*
X189961Y179134D02*
X199803D01*
X80709Y82677D02*
Y88583D01*
Y49213D02*
Y55118D01*
X74803Y82677D02*
X80709D01*
X74803Y55118D02*
Y82677D01*
Y55118D02*
X86614D01*
Y82677D01*
X80709D02*
X86614D01*
X109252Y196850D02*
X119095D01*
X26652Y408361D02*
X25653Y409360D01*
X23653D01*
X22654Y408361D01*
Y404362D01*
X23653Y403362D01*
X25653D01*
X26652Y404362D01*
Y406361D01*
X24653D01*
X28652Y403362D02*
Y409360D01*
X32650Y403362D01*
Y409360D01*
X34650D02*
Y403362D01*
X37649D01*
X38648Y404362D01*
Y408361D01*
X37649Y409360D01*
X34650D01*
X23047Y393126D02*
Y399124D01*
X26046D01*
X27046Y398124D01*
Y396125D01*
X26046Y395125D01*
X23047D01*
X25047D02*
X27046Y393126D01*
X29045Y399124D02*
X33044Y393126D01*
Y399124D02*
X29045Y393126D01*
X22654Y388100D02*
X26652D01*
X24653D01*
Y382102D01*
X28652Y388100D02*
X32650Y382102D01*
Y388100D02*
X28652Y382102D01*
X27440Y377864D02*
X23441D01*
Y374865D01*
X25440Y375865D01*
X26440D01*
X27440Y374865D01*
Y372866D01*
X26440Y371866D01*
X24441D01*
X23441Y372866D01*
X29439Y377864D02*
Y373866D01*
X31438Y371866D01*
X33438Y373866D01*
Y377864D01*
X116142Y429513D02*
X116808Y430180D01*
X118141D01*
X118807Y429513D01*
Y428847D01*
X118141Y428181D01*
X117475D01*
X118141D01*
X118807Y427514D01*
Y426848D01*
X118141Y426181D01*
X116808D01*
X116142Y426848D01*
X120140Y430180D02*
Y427514D01*
X121473Y426181D01*
X122806Y427514D01*
Y430180D01*
X124139Y429513D02*
X124806Y430180D01*
X126138D01*
X126805Y429513D01*
Y428847D01*
X126138Y428181D01*
X125472D01*
X126138D01*
X126805Y427514D01*
Y426848D01*
X126138Y426181D01*
X124806D01*
X124139Y426848D01*
X119792Y419671D02*
X119125Y420337D01*
X117792D01*
X117126Y419671D01*
Y417005D01*
X117792Y416339D01*
X119125D01*
X119792Y417005D01*
Y418338D01*
X118459D01*
X121125Y416339D02*
Y420337D01*
X123791Y416339D01*
Y420337D01*
X125123D02*
Y416339D01*
X127123D01*
X127789Y417005D01*
Y419671D01*
X127123Y420337D01*
X125123D01*
X117126Y410495D02*
X118459D01*
X117792D01*
Y406496D01*
X117126D01*
X118459D01*
X122458Y410495D02*
X121125D01*
X120458Y409828D01*
Y407163D01*
X121125Y406496D01*
X122458D01*
X123124Y407163D01*
Y409828D01*
X122458Y410495D01*
X124457Y406496D02*
X125790D01*
X125123D01*
Y410495D01*
X124457Y409828D01*
X130455Y410495D02*
X127789D01*
Y408495D01*
X129122Y409162D01*
X129789D01*
X130455Y408495D01*
Y407163D01*
X129789Y406496D01*
X128456D01*
X127789Y407163D01*
X118110Y400652D02*
X119443D01*
X118777D01*
Y396654D01*
X118110D01*
X119443D01*
X123442Y400652D02*
X122109D01*
X121442Y399986D01*
Y397320D01*
X122109Y396654D01*
X123442D01*
X124108Y397320D01*
Y399986D01*
X123442Y400652D01*
X128107Y396654D02*
X125441D01*
X128107Y399319D01*
Y399986D01*
X127441Y400652D01*
X126108D01*
X125441Y399986D01*
X118110Y390810D02*
X119443D01*
X118777D01*
Y386811D01*
X118110D01*
X119443D01*
X123442Y390810D02*
X122109D01*
X121442Y390143D01*
Y387477D01*
X122109Y386811D01*
X123442D01*
X124108Y387477D01*
Y390143D01*
X123442Y390810D01*
X127441Y386811D02*
Y390810D01*
X125441Y388810D01*
X128107D01*
X118110Y379983D02*
X119443D01*
X118777D01*
Y375984D01*
X118110D01*
X119443D01*
X123442Y379983D02*
X122109D01*
X121442Y379316D01*
Y376651D01*
X122109Y375984D01*
X123442D01*
X124108Y376651D01*
Y379316D01*
X123442Y379983D01*
X125441Y375984D02*
X126774D01*
X126108D01*
Y379983D01*
X125441Y379316D01*
X131439Y379983D02*
X130106Y379316D01*
X128773Y377984D01*
Y376651D01*
X129440Y375984D01*
X130773D01*
X131439Y376651D01*
Y377317D01*
X130773Y377984D01*
X128773D01*
X118110Y370140D02*
X119443D01*
X118777D01*
Y366142D01*
X118110D01*
X119443D01*
X123442Y370140D02*
X122109D01*
X121442Y369474D01*
Y366808D01*
X122109Y366142D01*
X123442D01*
X124108Y366808D01*
Y369474D01*
X123442Y370140D01*
X125441Y366142D02*
X126774D01*
X126108D01*
Y370140D01*
X125441Y369474D01*
X128773Y370140D02*
X131439D01*
Y369474D01*
X128773Y366808D01*
Y366142D01*
X118110Y360298D02*
X119443D01*
X118777D01*
Y356299D01*
X118110D01*
X119443D01*
X123442Y360298D02*
X122109D01*
X121442Y359631D01*
Y356966D01*
X122109Y356299D01*
X123442D01*
X124108Y356966D01*
Y359631D01*
X123442Y360298D01*
X128107D02*
X125441D01*
Y358299D01*
X126774Y358965D01*
X127441D01*
X128107Y358299D01*
Y356966D01*
X127441Y356299D01*
X126108D01*
X125441Y356966D01*
X118110Y350455D02*
X119443D01*
X118777D01*
Y346457D01*
X118110D01*
X119443D01*
X123442Y350455D02*
X122109D01*
X121442Y349789D01*
Y347123D01*
X122109Y346457D01*
X123442D01*
X124108Y347123D01*
Y349789D01*
X123442Y350455D01*
X125441Y346457D02*
X126774D01*
X126108D01*
Y350455D01*
X125441Y349789D01*
X128773D02*
X129440Y350455D01*
X130773D01*
X131439Y349789D01*
Y349123D01*
X130773Y348456D01*
X131439Y347790D01*
Y347123D01*
X130773Y346457D01*
X129440D01*
X128773Y347123D01*
Y347790D01*
X129440Y348456D01*
X128773Y349123D01*
Y349789D01*
X129440Y348456D02*
X130773D01*
X118110Y340613D02*
X119443D01*
X118777D01*
Y336614D01*
X118110D01*
X119443D01*
X123442Y340613D02*
X122109D01*
X121442Y339946D01*
Y337281D01*
X122109Y336614D01*
X123442D01*
X124108Y337281D01*
Y339946D01*
X123442Y340613D01*
X125441Y336614D02*
X126774D01*
X126108D01*
Y340613D01*
X125441Y339946D01*
X128773Y337281D02*
X129440Y336614D01*
X130773D01*
X131439Y337281D01*
Y339946D01*
X130773Y340613D01*
X129440D01*
X128773Y339946D01*
Y339280D01*
X129440Y338614D01*
X131439D01*
X118110Y329786D02*
X119443D01*
X118777D01*
Y325787D01*
X118110D01*
X119443D01*
X123442Y329786D02*
X122109D01*
X121442Y329120D01*
Y326454D01*
X122109Y325787D01*
X123442D01*
X124108Y326454D01*
Y329120D01*
X123442Y329786D01*
X128107Y325787D02*
X125441D01*
X128107Y328453D01*
Y329120D01*
X127441Y329786D01*
X126108D01*
X125441Y329120D01*
X129440Y325787D02*
X130773D01*
X130106D01*
Y329786D01*
X129440Y329120D01*
X118110Y319944D02*
X119443D01*
X118777D01*
Y315945D01*
X118110D01*
X119443D01*
X123442Y319944D02*
X122109D01*
X121442Y319277D01*
Y316611D01*
X122109Y315945D01*
X123442D01*
X124108Y316611D01*
Y319277D01*
X123442Y319944D01*
X125441Y319277D02*
X126108Y319944D01*
X127441D01*
X128107Y319277D01*
Y318611D01*
X127441Y317944D01*
X126774D01*
X127441D01*
X128107Y317278D01*
Y316611D01*
X127441Y315945D01*
X126108D01*
X125441Y316611D01*
X118110Y310101D02*
X119443D01*
X118777D01*
Y306102D01*
X118110D01*
X119443D01*
X123442Y310101D02*
X122109D01*
X121442Y309435D01*
Y306769D01*
X122109Y306102D01*
X123442D01*
X124108Y306769D01*
Y309435D01*
X123442Y310101D01*
X125441Y306102D02*
X126774D01*
X126108D01*
Y310101D01*
X125441Y309435D01*
X118110Y300259D02*
X119443D01*
X118777D01*
Y296260D01*
X118110D01*
X119443D01*
X123442Y300259D02*
X122109D01*
X121442Y299592D01*
Y296926D01*
X122109Y296260D01*
X123442D01*
X124108Y296926D01*
Y299592D01*
X123442Y300259D01*
X128107Y296260D02*
X125441D01*
X128107Y298926D01*
Y299592D01*
X127441Y300259D01*
X126108D01*
X125441Y299592D01*
X132106Y296260D02*
X129440D01*
X132106Y298926D01*
Y299592D01*
X131439Y300259D01*
X130106D01*
X129440Y299592D01*
X118110Y289432D02*
X119443D01*
X118777D01*
Y285433D01*
X118110D01*
X119443D01*
X123442Y289432D02*
X122109D01*
X121442Y288765D01*
Y286100D01*
X122109Y285433D01*
X123442D01*
X124108Y286100D01*
Y288765D01*
X123442Y289432D01*
X128107Y285433D02*
X125441D01*
X128107Y288099D01*
Y288765D01*
X127441Y289432D01*
X126108D01*
X125441Y288765D01*
X129440D02*
X130106Y289432D01*
X131439D01*
X132106Y288765D01*
Y288099D01*
X131439Y287432D01*
X130773D01*
X131439D01*
X132106Y286766D01*
Y286100D01*
X131439Y285433D01*
X130106D01*
X129440Y286100D01*
X187008Y431164D02*
Y428498D01*
X188341Y427165D01*
X189674Y428498D01*
Y431164D01*
X191007D02*
X192340D01*
X191673D01*
Y427165D01*
X191007D01*
X192340D01*
X194339D02*
Y431164D01*
X197005Y427165D01*
Y431164D01*
X189674Y419671D02*
X189007Y420337D01*
X187674D01*
X187008Y419671D01*
Y417005D01*
X187674Y416339D01*
X189007D01*
X189674Y417005D01*
Y418338D01*
X188341D01*
X191007Y416339D02*
Y420337D01*
X193672Y416339D01*
Y420337D01*
X195005D02*
Y416339D01*
X197005D01*
X197671Y417005D01*
Y419671D01*
X197005Y420337D01*
X195005D01*
X184055Y410495D02*
X185388D01*
X184722D01*
Y406496D01*
X184055D01*
X185388D01*
X189387Y410495D02*
X188054D01*
X187387Y409828D01*
Y407163D01*
X188054Y406496D01*
X189387D01*
X190053Y407163D01*
Y409828D01*
X189387Y410495D01*
X191386Y406496D02*
X192719D01*
X192052D01*
Y410495D01*
X191386Y409828D01*
X194718D02*
X195385Y410495D01*
X196718D01*
X197384Y409828D01*
Y409162D01*
X196718Y408495D01*
X196051D01*
X196718D01*
X197384Y407829D01*
Y407163D01*
X196718Y406496D01*
X195385D01*
X194718Y407163D01*
X184055Y400652D02*
X185388D01*
X184722D01*
Y396654D01*
X184055D01*
X185388D01*
X189387Y400652D02*
X188054D01*
X187387Y399986D01*
Y397320D01*
X188054Y396654D01*
X189387D01*
X190053Y397320D01*
Y399986D01*
X189387Y400652D01*
X191386Y396654D02*
X192719D01*
X192052D01*
Y400652D01*
X191386Y399986D01*
X197384Y396654D02*
X194718D01*
X197384Y399319D01*
Y399986D01*
X196718Y400652D01*
X195385D01*
X194718Y399986D01*
X184055Y390810D02*
X185388D01*
X184722D01*
Y386811D01*
X184055D01*
X185388D01*
X189387Y390810D02*
X188054D01*
X187387Y390143D01*
Y387477D01*
X188054Y386811D01*
X189387D01*
X190053Y387477D01*
Y390143D01*
X189387Y390810D01*
X191386Y386811D02*
X192719D01*
X192052D01*
Y390810D01*
X191386Y390143D01*
X196718Y386811D02*
Y390810D01*
X194718Y388810D01*
X197384D01*
X183071Y380967D02*
X184404D01*
X183737D01*
Y376969D01*
X183071D01*
X184404D01*
X188402Y380967D02*
X187070D01*
X186403Y380301D01*
Y377635D01*
X187070Y376969D01*
X188402D01*
X189069Y377635D01*
Y380301D01*
X188402Y380967D01*
X193068Y376969D02*
X190402D01*
X193068Y379634D01*
Y380301D01*
X192401Y380967D01*
X191068D01*
X190402Y380301D01*
X194401Y380967D02*
X197066D01*
Y380301D01*
X194401Y377635D01*
Y376969D01*
X183071Y370140D02*
X184404D01*
X183737D01*
Y366142D01*
X183071D01*
X184404D01*
X188402Y370140D02*
X187070D01*
X186403Y369474D01*
Y366808D01*
X187070Y366142D01*
X188402D01*
X189069Y366808D01*
Y369474D01*
X188402Y370140D01*
X193068Y366142D02*
X190402D01*
X193068Y368808D01*
Y369474D01*
X192401Y370140D01*
X191068D01*
X190402Y369474D01*
X197066Y370140D02*
X195733Y369474D01*
X194401Y368141D01*
Y366808D01*
X195067Y366142D01*
X196400D01*
X197066Y366808D01*
Y367475D01*
X196400Y368141D01*
X194401D01*
X183071Y360298D02*
X184404D01*
X183737D01*
Y356299D01*
X183071D01*
X184404D01*
X188402Y360298D02*
X187070D01*
X186403Y359631D01*
Y356966D01*
X187070Y356299D01*
X188402D01*
X189069Y356966D01*
Y359631D01*
X188402Y360298D01*
X193068Y356299D02*
X190402D01*
X193068Y358965D01*
Y359631D01*
X192401Y360298D01*
X191068D01*
X190402Y359631D01*
X197066Y360298D02*
X194401D01*
Y358299D01*
X195733Y358965D01*
X196400D01*
X197066Y358299D01*
Y356966D01*
X196400Y356299D01*
X195067D01*
X194401Y356966D01*
X183071Y350455D02*
X184404D01*
X183737D01*
Y346457D01*
X183071D01*
X184404D01*
X188402Y350455D02*
X187070D01*
X186403Y349789D01*
Y347123D01*
X187070Y346457D01*
X188402D01*
X189069Y347123D01*
Y349789D01*
X188402Y350455D01*
X190402Y349789D02*
X191068Y350455D01*
X192401D01*
X193068Y349789D01*
Y349123D01*
X192401Y348456D01*
X191735D01*
X192401D01*
X193068Y347790D01*
Y347123D01*
X192401Y346457D01*
X191068D01*
X190402Y347123D01*
X194401Y349789D02*
X195067Y350455D01*
X196400D01*
X197066Y349789D01*
Y349123D01*
X196400Y348456D01*
X195733D01*
X196400D01*
X197066Y347790D01*
Y347123D01*
X196400Y346457D01*
X195067D01*
X194401Y347123D01*
X183071Y339629D02*
X184404D01*
X183737D01*
Y335630D01*
X183071D01*
X184404D01*
X188402Y339629D02*
X187070D01*
X186403Y338962D01*
Y336296D01*
X187070Y335630D01*
X188402D01*
X189069Y336296D01*
Y338962D01*
X188402Y339629D01*
X190402Y338962D02*
X191068Y339629D01*
X192401D01*
X193068Y338962D01*
Y338296D01*
X192401Y337629D01*
X191735D01*
X192401D01*
X193068Y336963D01*
Y336296D01*
X192401Y335630D01*
X191068D01*
X190402Y336296D01*
X197066Y335630D02*
X194401D01*
X197066Y338296D01*
Y338962D01*
X196400Y339629D01*
X195067D01*
X194401Y338962D01*
X183071Y329786D02*
X184404D01*
X183737D01*
Y325787D01*
X183071D01*
X184404D01*
X188402Y329786D02*
X187070D01*
X186403Y329120D01*
Y326454D01*
X187070Y325787D01*
X188402D01*
X189069Y326454D01*
Y329120D01*
X188402Y329786D01*
X190402Y329120D02*
X191068Y329786D01*
X192401D01*
X193068Y329120D01*
Y328453D01*
X192401Y327787D01*
X191735D01*
X192401D01*
X193068Y327120D01*
Y326454D01*
X192401Y325787D01*
X191068D01*
X190402Y326454D01*
X197066Y329786D02*
X194401D01*
Y327787D01*
X195733Y328453D01*
X196400D01*
X197066Y327787D01*
Y326454D01*
X196400Y325787D01*
X195067D01*
X194401Y326454D01*
X183071Y320928D02*
X184404D01*
X183737D01*
Y316929D01*
X183071D01*
X184404D01*
X188402Y320928D02*
X187070D01*
X186403Y320261D01*
Y317596D01*
X187070Y316929D01*
X188402D01*
X189069Y317596D01*
Y320261D01*
X188402Y320928D01*
X190402Y320261D02*
X191068Y320928D01*
X192401D01*
X193068Y320261D01*
Y319595D01*
X192401Y318929D01*
X191735D01*
X192401D01*
X193068Y318262D01*
Y317596D01*
X192401Y316929D01*
X191068D01*
X190402Y317596D01*
X196400Y316929D02*
Y320928D01*
X194401Y318929D01*
X197066D01*
X189961Y311085D02*
Y308419D01*
X191294Y307087D01*
X192626Y308419D01*
Y311085D01*
X193959Y307087D02*
Y311085D01*
X196625Y307087D01*
Y311085D01*
X189961Y300259D02*
Y297593D01*
X191294Y296260D01*
X192626Y297593D01*
Y300259D01*
X193959Y296260D02*
Y300259D01*
X195959D01*
X196625Y299592D01*
Y298259D01*
X195959Y297593D01*
X193959D01*
X192626Y290416D02*
X189961D01*
Y286417D01*
X192626D01*
X189961Y288417D02*
X191294D01*
X193959Y286417D02*
Y290416D01*
X196625Y286417D01*
Y290416D01*
X108608Y261928D02*
X103543D01*
Y254331D01*
X108608D01*
X103543Y258130D02*
X106076D01*
X116206Y260662D02*
X114940Y261928D01*
X112407D01*
X111141Y260662D01*
Y259396D01*
X112407Y258130D01*
X114940D01*
X116206Y256863D01*
Y255597D01*
X114940Y254331D01*
X112407D01*
X111141Y255597D01*
X118738Y254331D02*
Y261928D01*
X122537D01*
X123803Y260662D01*
Y258130D01*
X122537Y256863D01*
X118738D01*
X126336Y260662D02*
X127602Y261928D01*
X130135D01*
X131401Y260662D01*
Y259396D01*
X130135Y258130D01*
X128868D01*
X130135D01*
X131401Y256863D01*
Y255597D01*
X130135Y254331D01*
X127602D01*
X126336Y255597D01*
X138998Y254331D02*
X133933D01*
X138998Y259396D01*
Y260662D01*
X137732Y261928D01*
X135200D01*
X133933Y260662D01*
X141531Y258130D02*
X146596D01*
X149128Y261928D02*
Y254331D01*
X152927D01*
X154194Y255597D01*
Y260662D01*
X152927Y261928D01*
X149128D01*
X160525Y254331D02*
X157992D01*
X156726Y255597D01*
Y258130D01*
X157992Y259396D01*
X160525D01*
X161791Y258130D01*
Y256863D01*
X156726D01*
X164324Y259396D02*
X166856Y254331D01*
X169389Y259396D01*
X171921Y254331D02*
Y261928D01*
Y256863D02*
X175720Y259396D01*
X171921Y256863D02*
X175720Y254331D01*
X179519D02*
X182051D01*
X180785D01*
Y259396D01*
X179519D01*
X187116Y260662D02*
Y259396D01*
X185850D01*
X188382D01*
X187116D01*
Y255597D01*
X188382Y254331D01*
X199779Y261928D02*
Y256863D01*
X202311Y254331D01*
X204844Y256863D01*
Y261928D01*
X207376Y254331D02*
X209909D01*
X208643D01*
Y261928D01*
X207376Y260662D01*
X102200Y143800D02*
Y149798D01*
X105199D01*
X106199Y148798D01*
Y146799D01*
X105199Y145799D01*
X102200D01*
X104199D02*
X106199Y143800D01*
X108198Y144800D02*
X109198Y143800D01*
X111197D01*
X112197Y144800D01*
Y148798D01*
X111197Y149798D01*
X109198D01*
X108198Y148798D01*
Y147799D01*
X109198Y146799D01*
X112197D01*
X20411Y353181D02*
X19411Y354180D01*
X17412D01*
X16412Y353181D01*
Y349182D01*
X17412Y348182D01*
X19411D01*
X20411Y349182D01*
X22410Y348182D02*
Y354180D01*
X26409Y348182D01*
Y354180D01*
X28408D02*
X32407D01*
Y353181D01*
X28408Y349182D01*
Y348182D01*
X45529Y350637D02*
X49527D01*
X47528D01*
Y344639D01*
X52526Y348638D02*
X54526D01*
X55525Y347638D01*
Y344639D01*
X52526D01*
X51527Y345638D01*
X52526Y346638D01*
X55525D01*
X57525Y350637D02*
Y344639D01*
X60524D01*
X61523Y345638D01*
Y346638D01*
Y347638D01*
X60524Y348638D01*
X57525D01*
X63523Y344639D02*
X65522D01*
X64522D01*
Y350637D01*
X63523D01*
X71520Y344639D02*
X69521D01*
X68521Y345638D01*
Y347638D01*
X69521Y348638D01*
X71520D01*
X72520Y347638D01*
Y346638D01*
X68521D01*
X75519Y349637D02*
Y348638D01*
X74519D01*
X76519D01*
X75519D01*
Y345638D01*
X76519Y344639D01*
X141671Y217473D02*
Y223471D01*
X144670D01*
X145669Y222472D01*
Y220472D01*
X144670Y219473D01*
X141671D01*
X143670D02*
X145669Y217473D01*
X147669D02*
X149668D01*
X148668D01*
Y223471D01*
X147669Y222472D01*
X128860Y217473D02*
Y223471D01*
X131859D01*
X132859Y222472D01*
Y220472D01*
X131859Y219473D01*
X128860D01*
X130859D02*
X132859Y217473D01*
X138857D02*
X134858D01*
X138857Y221472D01*
Y222472D01*
X137857Y223471D01*
X135858D01*
X134858Y222472D01*
X165474Y215505D02*
Y221503D01*
X168473D01*
X169473Y220503D01*
Y218504D01*
X168473Y217504D01*
X165474D01*
X167473D02*
X169473Y215505D01*
X175471Y221503D02*
X171472D01*
Y218504D01*
X173471Y219504D01*
X174471D01*
X175471Y218504D01*
Y216505D01*
X174471Y215505D01*
X172472D01*
X171472Y216505D01*
X233584Y323773D02*
Y329771D01*
X236583D01*
X237583Y328771D01*
Y326772D01*
X236583Y325772D01*
X233584D01*
X235584D02*
X237583Y323773D01*
X239582Y329771D02*
X243581D01*
Y328771D01*
X239582Y324772D01*
Y323773D01*
X233841Y302119D02*
Y308117D01*
X236840D01*
X237840Y307118D01*
Y305118D01*
X236840Y304118D01*
X233841D01*
X235840D02*
X237840Y302119D01*
X239839D02*
X241838D01*
X240839D01*
Y308117D01*
X239839Y307118D01*
X244837D02*
X245837Y308117D01*
X247836D01*
X248836Y307118D01*
Y303119D01*
X247836Y302119D01*
X245837D01*
X244837Y303119D01*
Y307118D01*
X262400Y370298D02*
Y365300D01*
X263400Y364300D01*
X265399D01*
X266399Y365300D01*
Y370298D01*
X268398Y364300D02*
X270397D01*
X269398D01*
Y370298D01*
X268398Y369298D01*
X4420Y420894D02*
X8418D01*
X6419D01*
Y414896D01*
X10418D02*
Y420894D01*
X13417D01*
X14416Y419895D01*
Y417895D01*
X13417Y416896D01*
X10418D01*
X16416Y414896D02*
X18415D01*
X17415D01*
Y420894D01*
X16416Y419895D01*
X5539Y367566D02*
X9538D01*
X7538D01*
Y361568D01*
X15536Y367566D02*
X11537D01*
Y361568D01*
X15536D01*
X11537Y364567D02*
X13536D01*
X21534Y366566D02*
X20534Y367566D01*
X18535D01*
X17535Y366566D01*
Y365567D01*
X18535Y364567D01*
X20534D01*
X21534Y363567D01*
Y362568D01*
X20534Y361568D01*
X18535D01*
X17535Y362568D01*
X23533Y367566D02*
X27532D01*
X25532D01*
Y361568D01*
X180041Y217473D02*
Y223471D01*
X183040D01*
X184040Y222472D01*
Y220472D01*
X183040Y219473D01*
X180041D01*
X182040D02*
X184040Y217473D01*
X186039Y222472D02*
X187039Y223471D01*
X189038D01*
X190038Y222472D01*
Y221472D01*
X189038Y220472D01*
X190038Y219473D01*
Y218473D01*
X189038Y217473D01*
X187039D01*
X186039Y218473D01*
Y219473D01*
X187039Y220472D01*
X186039Y221472D01*
Y222472D01*
X187039Y220472D02*
X189038D01*
X152482Y217473D02*
Y223471D01*
X155481D01*
X156481Y222472D01*
Y220472D01*
X155481Y219473D01*
X152482D01*
X154481D02*
X156481Y217473D01*
X162479Y223471D02*
X160479Y222472D01*
X158480Y220472D01*
Y218473D01*
X159480Y217473D01*
X161479D01*
X162479Y218473D01*
Y219473D01*
X161479Y220472D01*
X158480D01*
X254844Y418261D02*
Y424259D01*
X257843D01*
X258843Y423259D01*
Y421260D01*
X257843Y420260D01*
X254844D01*
X256843D02*
X258843Y418261D01*
X263841D02*
Y424259D01*
X260842Y421260D01*
X264841D01*
X254844Y394639D02*
Y400637D01*
X257843D01*
X258843Y399637D01*
Y397638D01*
X257843Y396638D01*
X254844D01*
X256843D02*
X258843Y394639D01*
X260842Y399637D02*
X261842Y400637D01*
X263841D01*
X264841Y399637D01*
Y398638D01*
X263841Y397638D01*
X262842D01*
X263841D01*
X264841Y396638D01*
Y395638D01*
X263841Y394639D01*
X261842D01*
X260842Y395638D01*
X204724Y222410D02*
Y226409D01*
X203725Y227409D01*
X201725D01*
X200726Y226409D01*
Y222410D01*
X201725Y221410D01*
X203725D01*
X202725Y223410D02*
X204724Y221410D01*
X203725D02*
X204724Y222410D01*
X206724Y221410D02*
X208723D01*
X207723D01*
Y227409D01*
X206724Y226409D01*
X329647Y40308D02*
Y46306D01*
X333646Y40308D01*
Y46306D01*
X338644Y40308D02*
Y46306D01*
X335645Y43307D01*
X339644D01*
X43821Y11174D02*
Y17172D01*
X47819Y11174D01*
Y17172D01*
X49819Y16173D02*
X50818Y17172D01*
X52818D01*
X53817Y16173D01*
Y15173D01*
X52818Y14173D01*
X51818D01*
X52818D01*
X53817Y13174D01*
Y12174D01*
X52818Y11174D01*
X50818D01*
X49819Y12174D01*
X325710Y417867D02*
Y423865D01*
X329709Y417867D01*
Y423865D01*
X335707Y417867D02*
X331708D01*
X335707Y421866D01*
Y422865D01*
X334707Y423865D01*
X332708D01*
X331708Y422865D01*
X15686Y426135D02*
Y432133D01*
X19685Y426135D01*
Y432133D01*
X21684Y426135D02*
X23684D01*
X22684D01*
Y432133D01*
X21684Y431133D01*
X145608Y103393D02*
Y97395D01*
Y99394D01*
X149606Y103393D01*
X146607Y100394D01*
X149606Y97395D01*
X151606D02*
X153605D01*
X152605D01*
Y103393D01*
X151606Y102393D01*
X225315Y267828D02*
X227314D01*
X226315D01*
Y272826D01*
X227314Y273826D01*
X228314D01*
X229314Y272826D01*
X223316Y273826D02*
X221316D01*
X222316D01*
Y267828D01*
X223316Y268827D01*
X78199Y108798D02*
X74200D01*
Y105799D01*
X76199D01*
X74200D01*
Y102800D01*
X80198D02*
X82197D01*
X81198D01*
Y108798D01*
X80198Y107798D01*
X108700Y206398D02*
Y200400D01*
X111699D01*
X112699Y201400D01*
Y205398D01*
X111699Y206398D01*
X108700D01*
X114698D02*
X118697D01*
Y205398D01*
X114698Y201400D01*
Y200400D01*
X130828Y160479D02*
Y154481D01*
X133827D01*
X134827Y155481D01*
Y159480D01*
X133827Y160479D01*
X130828D01*
X140825D02*
X138826Y159480D01*
X136826Y157480D01*
Y155481D01*
X137826Y154481D01*
X139825D01*
X140825Y155481D01*
Y156481D01*
X139825Y157480D01*
X136826D01*
X189400Y205998D02*
Y200000D01*
X192399D01*
X193399Y201000D01*
Y204998D01*
X192399Y205998D01*
X189400D01*
X199397D02*
X195398D01*
Y202999D01*
X197397Y203999D01*
X198397D01*
X199397Y202999D01*
Y201000D01*
X198397Y200000D01*
X196398D01*
X195398Y201000D01*
X210200Y206298D02*
Y200300D01*
X213199D01*
X214199Y201300D01*
Y205298D01*
X213199Y206298D01*
X210200D01*
X216198Y205298D02*
X217198Y206298D01*
X219197D01*
X220197Y205298D01*
Y204299D01*
X219197Y203299D01*
X218197D01*
X219197D01*
X220197Y202299D01*
Y201300D01*
X219197Y200300D01*
X217198D01*
X216198Y201300D01*
X152482Y160479D02*
Y154481D01*
X155481D01*
X156481Y155481D01*
Y159480D01*
X155481Y160479D01*
X152482D01*
X161479Y154481D02*
Y160479D01*
X158480Y157480D01*
X162479D01*
X148000Y205998D02*
Y200000D01*
X150999D01*
X151999Y201000D01*
Y204998D01*
X150999Y205998D01*
X148000D01*
X157997Y200000D02*
X153998D01*
X157997Y203999D01*
Y204998D01*
X156997Y205998D01*
X154998D01*
X153998Y204998D01*
X169700Y205998D02*
Y200000D01*
X172699D01*
X173699Y201000D01*
Y204998D01*
X172699Y205998D01*
X169700D01*
X175698Y200000D02*
X177697D01*
X176698D01*
Y205998D01*
X175698Y204998D01*
X19623Y163417D02*
X18624Y164416D01*
X16624D01*
X15625Y163417D01*
Y159418D01*
X16624Y158418D01*
X18624D01*
X19623Y159418D01*
X21623Y158418D02*
Y164416D01*
X25621Y158418D01*
Y164416D01*
X31620D02*
X27621D01*
Y161417D01*
X29620Y162417D01*
X30620D01*
X31620Y161417D01*
Y159418D01*
X30620Y158418D01*
X28620D01*
X27621Y159418D01*
X66323Y151212D02*
X65324Y152212D01*
X63324D01*
X62325Y151212D01*
Y147213D01*
X63324Y146214D01*
X65324D01*
X66323Y147213D01*
X68322Y152212D02*
X72321D01*
X70322D01*
Y146214D01*
X20804Y112078D02*
X19805Y113078D01*
X17805D01*
X16806Y112078D01*
Y108079D01*
X17805Y107080D01*
X19805D01*
X20804Y108079D01*
X22804Y107080D02*
Y113078D01*
X26803Y107080D01*
Y113078D01*
X28802Y112078D02*
X29801Y113078D01*
X31801D01*
X32801Y112078D01*
Y111078D01*
X31801Y110079D01*
X32801Y109079D01*
Y108079D01*
X31801Y107080D01*
X29801D01*
X28802Y108079D01*
Y109079D01*
X29801Y110079D01*
X28802Y111078D01*
Y112078D01*
X29801Y110079D02*
X31801D01*
X16015Y50661D02*
X15015Y51661D01*
X13016D01*
X12016Y50661D01*
Y46662D01*
X13016Y45662D01*
X15015D01*
X16015Y46662D01*
X19014Y45662D02*
X21013D01*
X22013Y46662D01*
Y48661D01*
X21013Y49661D01*
X19014D01*
X18014Y48661D01*
Y46662D01*
X19014Y45662D01*
X24012D02*
Y49661D01*
X27011D01*
X28011Y48661D01*
Y45662D01*
X30010D02*
Y49661D01*
X33009D01*
X34009Y48661D01*
Y45662D01*
X39007D02*
X37008D01*
X36008Y46662D01*
Y48661D01*
X37008Y49661D01*
X39007D01*
X40007Y48661D01*
Y47662D01*
X36008D01*
X46005Y49661D02*
X43006D01*
X42006Y48661D01*
Y46662D01*
X43006Y45662D01*
X46005D01*
X49004Y50661D02*
Y49661D01*
X48004D01*
X50004D01*
X49004D01*
Y46662D01*
X50004Y45662D01*
X54002D02*
X56002D01*
X57001Y46662D01*
Y48661D01*
X56002Y49661D01*
X54002D01*
X53003Y48661D01*
Y46662D01*
X54002Y45662D01*
X59001Y49661D02*
Y45662D01*
Y47662D01*
X60000Y48661D01*
X61000Y49661D01*
X62000D01*
X20022Y289558D02*
X19022Y290558D01*
X17023D01*
X16023Y289558D01*
Y285560D01*
X17023Y284560D01*
X19022D01*
X20022Y285560D01*
X22021Y284560D02*
Y290558D01*
X26020Y284560D01*
Y290558D01*
X32018D02*
X30019Y289558D01*
X28019Y287559D01*
Y285560D01*
X29019Y284560D01*
X31018D01*
X32018Y285560D01*
Y286559D01*
X31018Y287559D01*
X28019D01*
X10835Y228432D02*
X6836D01*
Y222434D01*
X10835D01*
X6836Y225433D02*
X8835D01*
X12834Y222434D02*
Y228432D01*
X14834Y226433D01*
X16833Y228432D01*
Y222434D01*
X22831Y228432D02*
X18832D01*
Y222434D01*
X22831D01*
X18832Y225433D02*
X20832D01*
X24830Y222434D02*
Y228432D01*
X27829D01*
X28829Y227432D01*
Y225433D01*
X27829Y224433D01*
X24830D01*
X26830D02*
X28829Y222434D01*
X36826Y228432D02*
Y222434D01*
X39825D01*
X40825Y223434D01*
Y224433D01*
X39825Y225433D01*
X36826D01*
X39825D01*
X40825Y226433D01*
Y227432D01*
X39825Y228432D01*
X36826D01*
X45823D02*
X43824D01*
X42825Y227432D01*
Y223434D01*
X43824Y222434D01*
X45823D01*
X46823Y223434D01*
Y227432D01*
X45823Y228432D01*
X48823Y222434D02*
Y226433D01*
X50822Y228432D01*
X52821Y226433D01*
Y222434D01*
Y225433D01*
X48823D01*
X54821Y222434D02*
Y228432D01*
X57820D01*
X58819Y227432D01*
Y225433D01*
X57820Y224433D01*
X54821D01*
X56820D02*
X58819Y222434D01*
X60819Y228432D02*
Y222434D01*
X63818D01*
X64817Y223434D01*
Y227432D01*
X63818Y228432D01*
X60819D01*
X6899Y213598D02*
X5899Y214598D01*
X3900D01*
X2900Y213598D01*
Y209600D01*
X3900Y208600D01*
X5899D01*
X6899Y209600D01*
X8898Y208600D02*
Y214598D01*
X12897Y208600D01*
Y214598D01*
X17895Y208600D02*
Y214598D01*
X14896Y211599D01*
X18895D01*
X47631Y178997D02*
Y184995D01*
X50630D01*
X51629Y183995D01*
Y181996D01*
X50630Y180996D01*
X47631D01*
X53628Y184995D02*
X57627D01*
Y183995D01*
X53628Y179997D01*
Y178997D01*
X57627D01*
X63625Y184995D02*
X59627D01*
Y178997D01*
X63625D01*
X59627Y181996D02*
X61626D01*
X65625Y178997D02*
Y184995D01*
X67624Y182996D01*
X69623Y184995D01*
Y178997D01*
X71623Y177997D02*
X75621D01*
X77621Y184995D02*
Y178997D01*
X80620D01*
X81620Y179997D01*
Y183995D01*
X80620Y184995D01*
X77621D01*
X83619Y178997D02*
Y182996D01*
X85618Y184995D01*
X87617Y182996D01*
Y178997D01*
Y181996D01*
X83619D01*
X89617Y184995D02*
X93616D01*
X91616D01*
Y178997D01*
X95615D02*
Y182996D01*
X97614Y184995D01*
X99614Y182996D01*
Y178997D01*
Y181996D01*
X95615D01*
X303088Y326802D02*
X302088Y327802D01*
X300089D01*
X299089Y326802D01*
Y322804D01*
X300089Y321804D01*
X302088D01*
X303088Y322804D01*
X305087Y321804D02*
Y327802D01*
X309086Y321804D01*
Y327802D01*
X311085Y326802D02*
X312085Y327802D01*
X314084D01*
X315084Y326802D01*
Y325803D01*
X314084Y324803D01*
X313085D01*
X314084D01*
X315084Y323803D01*
Y322804D01*
X314084Y321804D01*
X312085D01*
X311085Y322804D01*
X304279Y279089D02*
Y275091D01*
X306278Y273091D01*
X308278Y275091D01*
Y279089D01*
X310277Y272092D02*
X314276D01*
X316275Y279089D02*
Y273091D01*
X319274D01*
X320274Y274091D01*
Y275091D01*
X319274Y276090D01*
X316275D01*
X319274D01*
X320274Y277090D01*
Y278090D01*
X319274Y279089D01*
X316275D01*
X322273Y273091D02*
Y277090D01*
X324272Y279089D01*
X326272Y277090D01*
Y273091D01*
Y276090D01*
X322273D01*
X328271Y279089D02*
X332270D01*
X330271D01*
Y273091D01*
X334269Y272092D02*
X338268D01*
X340267Y279089D02*
X342267D01*
X341267D01*
Y273091D01*
X340267D01*
X342267D01*
X345266D02*
Y279089D01*
X349264Y273091D01*
Y279089D01*
X295214Y395700D02*
X294214Y396700D01*
X292215D01*
X291215Y395700D01*
Y391701D01*
X292215Y390702D01*
X294214D01*
X295214Y391701D01*
X297213Y390702D02*
Y396700D01*
X301212Y390702D01*
Y396700D01*
X307210Y390702D02*
X303211D01*
X307210Y394701D01*
Y395700D01*
X306210Y396700D01*
X304211D01*
X303211Y395700D01*
X296843Y369247D02*
Y365248D01*
X298842Y363249D01*
X300842Y365248D01*
Y369247D01*
X302841Y362249D02*
X306840D01*
X308839Y369247D02*
Y363249D01*
X311838D01*
X312838Y364248D01*
Y365248D01*
X311838Y366248D01*
X308839D01*
X311838D01*
X312838Y367248D01*
Y368247D01*
X311838Y369247D01*
X308839D01*
X314837Y363249D02*
Y367248D01*
X316837Y369247D01*
X318836Y367248D01*
Y363249D01*
Y366248D01*
X314837D01*
X320835Y369247D02*
X324834D01*
X322835D01*
Y363249D01*
X326833Y362249D02*
X330832D01*
X335830Y369247D02*
X333831D01*
X332831Y368247D01*
Y364248D01*
X333831Y363249D01*
X335830D01*
X336830Y364248D01*
Y368247D01*
X335830Y369247D01*
X338829D02*
Y364248D01*
X339829Y363249D01*
X341828D01*
X342828Y364248D01*
Y369247D01*
X344828D02*
X348826D01*
X346827D01*
Y363249D01*
X57237Y425228D02*
X56238Y426227D01*
X54238D01*
X53238Y425228D01*
Y421229D01*
X54238Y420229D01*
X56238D01*
X57237Y421229D01*
X59237Y420229D02*
Y426227D01*
X63235Y420229D01*
Y426227D01*
X65235Y420229D02*
X67234D01*
X66234D01*
Y426227D01*
X65235Y425228D01*
X47086Y417672D02*
Y413673D01*
X49086Y411674D01*
X51085Y413673D01*
Y417672D01*
X53084Y410674D02*
X57083D01*
X63081Y416672D02*
X62081Y417672D01*
X60082D01*
X59082Y416672D01*
Y415673D01*
X60082Y414673D01*
X62081D01*
X63081Y413673D01*
Y412674D01*
X62081Y411674D01*
X60082D01*
X59082Y412674D01*
X65080Y417672D02*
Y412674D01*
X66080Y411674D01*
X68079D01*
X69079Y412674D01*
Y417672D01*
X71078Y411674D02*
Y417672D01*
X74077D01*
X75077Y416672D01*
Y414673D01*
X74077Y413673D01*
X71078D01*
X77077Y411674D02*
Y417672D01*
X80076D01*
X81075Y416672D01*
Y414673D01*
X80076Y413673D01*
X77077D01*
X83074Y417672D02*
Y411674D01*
X87073D01*
X89073Y417672D02*
Y416672D01*
X91072Y414673D01*
X93071Y416672D01*
Y417672D01*
X91072Y414673D02*
Y411674D01*
X227347Y358299D02*
X226347Y359298D01*
X224348D01*
X223348Y358299D01*
Y354300D01*
X224348Y353300D01*
X226347D01*
X227347Y354300D01*
X233345Y353300D02*
X229346D01*
X233345Y357299D01*
Y358299D01*
X232345Y359298D01*
X230346D01*
X229346Y358299D01*
X228346Y344519D02*
X227347Y345519D01*
X225347D01*
X224348Y344519D01*
Y340520D01*
X225347Y339521D01*
X227347D01*
X228346Y340520D01*
X230346Y339521D02*
X232345D01*
X231346D01*
Y345519D01*
X230346Y344519D01*
D12*
X107205Y139685D02*
X108543D01*
X107205Y134331D02*
X108543D01*
X244684Y353735D02*
Y358863D01*
X243506Y353735D02*
Y358863D01*
Y339956D02*
Y345083D01*
X244684Y339956D02*
Y345083D01*
X207480Y238638D02*
Y242378D01*
X201969D02*
X207480D01*
Y230063D02*
Y233803D01*
X201969Y230063D02*
X207480D01*
D13*
X9646Y344094D02*
X41142D01*
X9646Y296850D02*
Y344094D01*
Y296850D02*
X41142D01*
Y344094D01*
X9252Y279370D02*
X40748D01*
X9252Y232126D02*
Y279370D01*
Y232126D02*
X40748D01*
Y279370D01*
X41535Y54961D02*
Y102205D01*
X10039Y54961D02*
X41535D01*
X10039D02*
Y102205D01*
X41535D01*
D14*
X166929Y244291D02*
X174803D01*
X166929Y226575D02*
Y244291D01*
Y226575D02*
X174803D01*
Y244291D01*
X149606Y227362D02*
Y245079D01*
X141732Y227362D02*
X149606D01*
X141732D02*
Y245079D01*
X149606D01*
X137795Y227362D02*
Y245079D01*
X129921Y227362D02*
X137795D01*
X129921D02*
Y245079D01*
X137795D01*
X223228Y318307D02*
X231102D01*
Y336024D01*
X223228D02*
X231102D01*
X223228Y318307D02*
Y336024D01*
Y297342D02*
X231102D01*
Y315059D01*
X223228D02*
X231102D01*
X223228Y297342D02*
Y315059D01*
X161417Y227362D02*
Y245079D01*
X153543Y227362D02*
X161417D01*
X153543D02*
Y245079D01*
X161417D01*
X187992Y227362D02*
Y245079D01*
X180118Y227362D02*
X187992D01*
X180118D02*
Y245079D01*
X187992D01*
X275590Y412402D02*
Y430118D01*
X267717Y412402D02*
X275590D01*
X267717D02*
Y430118D01*
X275590D01*
Y388779D02*
Y406496D01*
X267717Y388779D02*
X275590D01*
X267717D02*
Y406496D01*
X275590D01*
D15*
X6517Y380799D02*
X16417D01*
X6417Y411299D02*
X16417D01*
X6417Y371299D02*
Y411299D01*
Y371299D02*
X16417D01*
Y411299D01*
D16*
X121752Y90551D02*
X182776D01*
Y15748D02*
Y90551D01*
X121752Y15748D02*
X182776D01*
X121752D02*
Y90551D01*
D17*
X157480Y137205D02*
D03*
X135827Y137205D02*
D03*
M02*
