G04*
G04 #@! TF.GenerationSoftware,Altium Limited,Altium Designer,23.3.1 (30)*
G04*
G04 Layer_Physical_Order=1*
G04 Layer_Color=255*
%FSLAX25Y25*%
%MOIN*%
G70*
G04*
G04 #@! TF.SameCoordinates,31C88D48-930A-4E74-B286-259BC33A86EF*
G04*
G04*
G04 #@! TF.FilePolarity,Positive*
G04*
G01*
G75*
%ADD18R,0.03622X0.05433*%
G04:AMPARAMS|DCode=19|XSize=59.06mil|YSize=62.99mil|CornerRadius=14.76mil|HoleSize=0mil|Usage=FLASHONLY|Rotation=0.000|XOffset=0mil|YOffset=0mil|HoleType=Round|Shape=RoundedRectangle|*
%AMROUNDEDRECTD19*
21,1,0.05906,0.03347,0,0,0.0*
21,1,0.02953,0.06299,0,0,0.0*
1,1,0.02953,0.01476,-0.01673*
1,1,0.02953,-0.01476,-0.01673*
1,1,0.02953,-0.01476,0.01673*
1,1,0.02953,0.01476,0.01673*
%
%ADD19ROUNDEDRECTD19*%
G04:AMPARAMS|DCode=20|XSize=59.06mil|YSize=62.99mil|CornerRadius=7.38mil|HoleSize=0mil|Usage=FLASHONLY|Rotation=270.000|XOffset=0mil|YOffset=0mil|HoleType=Round|Shape=RoundedRectangle|*
%AMROUNDEDRECTD20*
21,1,0.05906,0.04823,0,0,270.0*
21,1,0.04429,0.06299,0,0,270.0*
1,1,0.01476,-0.02411,-0.02215*
1,1,0.01476,-0.02411,0.02215*
1,1,0.01476,0.02411,0.02215*
1,1,0.01476,0.02411,-0.02215*
%
%ADD20ROUNDEDRECTD20*%
G04:AMPARAMS|DCode=21|XSize=48.42mil|YSize=23.62mil|CornerRadius=5.91mil|HoleSize=0mil|Usage=FLASHONLY|Rotation=0.000|XOffset=0mil|YOffset=0mil|HoleType=Round|Shape=RoundedRectangle|*
%AMROUNDEDRECTD21*
21,1,0.04842,0.01181,0,0,0.0*
21,1,0.03661,0.02362,0,0,0.0*
1,1,0.01181,0.01831,-0.00591*
1,1,0.01181,-0.01831,-0.00591*
1,1,0.01181,-0.01831,0.00591*
1,1,0.01181,0.01831,0.00591*
%
%ADD21ROUNDEDRECTD21*%
%ADD22R,0.08661X0.02559*%
%ADD23C,0.10039*%
G04:AMPARAMS|DCode=24|XSize=110.24mil|YSize=110.24mil|CornerRadius=27.56mil|HoleSize=0mil|Usage=FLASHONLY|Rotation=180.000|XOffset=0mil|YOffset=0mil|HoleType=Round|Shape=RoundedRectangle|*
%AMROUNDEDRECTD24*
21,1,0.11024,0.05512,0,0,180.0*
21,1,0.05512,0.11024,0,0,180.0*
1,1,0.05512,-0.02756,0.02756*
1,1,0.05512,0.02756,0.02756*
1,1,0.05512,0.02756,-0.02756*
1,1,0.05512,-0.02756,-0.02756*
%
%ADD24ROUNDEDRECTD24*%
%ADD25C,0.11024*%
G04:AMPARAMS|DCode=26|XSize=67.72mil|YSize=67.72mil|CornerRadius=16.93mil|HoleSize=0mil|Usage=FLASHONLY|Rotation=90.000|XOffset=0mil|YOffset=0mil|HoleType=Round|Shape=RoundedRectangle|*
%AMROUNDEDRECTD26*
21,1,0.06772,0.03386,0,0,90.0*
21,1,0.03386,0.06772,0,0,90.0*
1,1,0.03386,0.01693,0.01693*
1,1,0.03386,0.01693,-0.01693*
1,1,0.03386,-0.01693,-0.01693*
1,1,0.03386,-0.01693,0.01693*
%
%ADD26ROUNDEDRECTD26*%
%ADD27C,0.06772*%
G04:AMPARAMS|DCode=28|XSize=110.24mil|YSize=110.24mil|CornerRadius=27.56mil|HoleSize=0mil|Usage=FLASHONLY|Rotation=270.000|XOffset=0mil|YOffset=0mil|HoleType=Round|Shape=RoundedRectangle|*
%AMROUNDEDRECTD28*
21,1,0.11024,0.05512,0,0,270.0*
21,1,0.05512,0.11024,0,0,270.0*
1,1,0.05512,-0.02756,-0.02756*
1,1,0.05512,-0.02756,0.02756*
1,1,0.05512,0.02756,0.02756*
1,1,0.05512,0.02756,-0.02756*
%
%ADD28ROUNDEDRECTD28*%
%ADD29R,0.07874X0.07874*%
%ADD30C,0.07874*%
%ADD31C,0.08268*%
%ADD33C,0.07600*%
%ADD34C,0.06102*%
G04:AMPARAMS|DCode=35|XSize=61.02mil|YSize=61.02mil|CornerRadius=15.26mil|HoleSize=0mil|Usage=FLASHONLY|Rotation=90.000|XOffset=0mil|YOffset=0mil|HoleType=Round|Shape=RoundedRectangle|*
%AMROUNDEDRECTD35*
21,1,0.06102,0.03051,0,0,90.0*
21,1,0.03051,0.06102,0,0,90.0*
1,1,0.03051,0.01526,0.01526*
1,1,0.03051,0.01526,-0.01526*
1,1,0.03051,-0.01526,-0.01526*
1,1,0.03051,-0.01526,0.01526*
%
%ADD35ROUNDEDRECTD35*%
%ADD36C,0.06693*%
%ADD37C,0.03150*%
%ADD38C,0.05906*%
%ADD39C,0.02346*%
%ADD40C,0.07874*%
%ADD41C,0.04921*%
%ADD42C,0.02953*%
%ADD43C,0.25197*%
%ADD44C,0.05000*%
G36*
X81064Y443310D02*
X78186Y443315D01*
X77890Y445661D01*
X78157Y445669D01*
X78400Y445690D01*
X78619Y445725D01*
X78815Y445775D01*
X78987Y445838D01*
X79135Y445916D01*
X79259Y446008D01*
X79360Y446114D01*
X79436Y446234D01*
X79489Y446368D01*
X81064Y443310D01*
D02*
G37*
G36*
X65018Y450001D02*
X64198Y449146D01*
X62720Y447384D01*
X62061Y446477D01*
X60906Y444613D01*
X60409Y443654D01*
X59576Y441687D01*
X59240Y440677D01*
X50126Y449791D01*
X51135Y450127D01*
X52128Y450517D01*
X53103Y450960D01*
X55002Y452008D01*
X55926Y452613D01*
X57723Y453983D01*
X58595Y454749D01*
X59450Y455569D01*
X65018Y450001D01*
D02*
G37*
G36*
X56783Y438996D02*
X56325Y439329D01*
X55783Y439494D01*
X55157Y439493D01*
X54447Y439324D01*
X53653Y438988D01*
X52775Y438484D01*
X51813Y437814D01*
X50767Y436976D01*
X48424Y434799D01*
X44248Y438975D01*
X45420Y440189D01*
X47263Y442364D01*
X47933Y443326D01*
X48436Y444204D01*
X48772Y444998D01*
X48941Y445708D01*
X48943Y446334D01*
X48778Y446876D01*
X48445Y447335D01*
X56783Y438996D01*
D02*
G37*
G36*
X99272Y420374D02*
X99356Y420253D01*
X99463Y420145D01*
X99592Y420052D01*
X99745Y419974D01*
X99920Y419910D01*
X100118Y419860D01*
X100338Y419824D01*
X100582Y419802D01*
X100848Y419795D01*
X100613Y417449D01*
X97754Y417354D01*
X99210Y420510D01*
X99272Y420374D01*
D02*
G37*
G36*
X105396Y415962D02*
X105102Y416245D01*
X104803Y416497D01*
X104498Y416720D01*
X104188Y416914D01*
X103873Y417077D01*
X103552Y417211D01*
X103226Y417315D01*
X102895Y417389D01*
X102558Y417434D01*
X102216Y417449D01*
Y419795D01*
X102558Y419810D01*
X102895Y419855D01*
X103226Y419929D01*
X103552Y420033D01*
X103873Y420167D01*
X104188Y420330D01*
X104498Y420524D01*
X104803Y420747D01*
X105102Y421000D01*
X105396Y421282D01*
Y415962D01*
D02*
G37*
G36*
X20654Y410522D02*
X20529Y410597D01*
X20388Y410665D01*
X20231Y410724D01*
X20058Y410775D01*
X19871Y410819D01*
X19667Y410854D01*
X19213Y410902D01*
X18963Y410914D01*
X18697Y410918D01*
X18137Y413264D01*
X18401Y413271D01*
X18647Y413291D01*
X18874Y413326D01*
X19082Y413374D01*
X19272Y413435D01*
X19443Y413511D01*
X19596Y413600D01*
X19731Y413703D01*
X19846Y413819D01*
X19944Y413949D01*
X20654Y410522D01*
D02*
G37*
G36*
X14074Y398342D02*
X14322Y398138D01*
X14579Y397959D01*
X14845Y397803D01*
X15119Y397672D01*
X15403Y397564D01*
X15695Y397480D01*
X15996Y397420D01*
X16306Y397384D01*
X16625Y397372D01*
Y395026D01*
X16306Y395014D01*
X15996Y394978D01*
X15695Y394918D01*
X15403Y394834D01*
X15119Y394727D01*
X14845Y394595D01*
X14579Y394440D01*
X14322Y394260D01*
X14074Y394057D01*
X13835Y393829D01*
Y398569D01*
X14074Y398342D01*
D02*
G37*
G36*
Y388542D02*
X14322Y388338D01*
X14579Y388159D01*
X14845Y388003D01*
X15119Y387872D01*
X15403Y387764D01*
X15695Y387680D01*
X15996Y387620D01*
X16306Y387584D01*
X16625Y387572D01*
Y385226D01*
X16306Y385214D01*
X15996Y385178D01*
X15695Y385118D01*
X15403Y385034D01*
X15119Y384927D01*
X14845Y384795D01*
X14579Y384640D01*
X14322Y384460D01*
X14074Y384257D01*
X13835Y384029D01*
Y388769D01*
X14074Y388542D01*
D02*
G37*
G36*
X105024Y383388D02*
X105294Y383182D01*
X105581Y383000D01*
X105885Y382843D01*
X106206Y382711D01*
X106545Y382604D01*
X106901Y382521D01*
X107274Y382463D01*
X107665Y382430D01*
X108072Y382422D01*
X104310Y378660D01*
X104302Y379068D01*
X104269Y379458D01*
X104211Y379831D01*
X104129Y380187D01*
X104021Y380526D01*
X103889Y380847D01*
X103732Y381152D01*
X103551Y381438D01*
X103344Y381708D01*
X103113Y381960D01*
X104772Y383620D01*
X105024Y383388D01*
D02*
G37*
G36*
X8811Y383094D02*
X11428Y380786D01*
X11955Y380401D01*
X12430Y380093D01*
X12854Y379861D01*
X13227Y379707D01*
X13549Y379630D01*
X8087Y374167D01*
X8009Y374489D01*
X7855Y374862D01*
X7624Y375287D01*
X7316Y375762D01*
X6931Y376288D01*
X5930Y377495D01*
X4622Y378905D01*
X3853Y379688D01*
X8029Y383863D01*
X8811Y383094D01*
D02*
G37*
G36*
X14069Y379421D02*
X14292Y379385D01*
X14628Y379354D01*
X17099Y379271D01*
X20135Y379252D01*
Y373346D01*
X13958Y373138D01*
Y379460D01*
X14069Y379421D01*
D02*
G37*
G36*
X105024Y373388D02*
X105294Y373182D01*
X105581Y373000D01*
X105885Y372843D01*
X106206Y372711D01*
X106545Y372604D01*
X106901Y372521D01*
X107274Y372463D01*
X107665Y372430D01*
X108072Y372422D01*
X104310Y368660D01*
X104302Y369068D01*
X104269Y369458D01*
X104211Y369831D01*
X104129Y370187D01*
X104021Y370526D01*
X103889Y370847D01*
X103732Y371152D01*
X103551Y371438D01*
X103344Y371708D01*
X103113Y371960D01*
X104772Y373620D01*
X105024Y373388D01*
D02*
G37*
G36*
X161473Y372126D02*
X161640Y370621D01*
X161918Y369161D01*
X162308Y367748D01*
X162809Y366381D01*
X163422Y365059D01*
X164146Y363785D01*
X164981Y362556D01*
X165927Y361373D01*
X166985Y360236D01*
Y349101D01*
X165927Y350080D01*
X164981Y350790D01*
X164146Y351232D01*
X163422Y351404D01*
X162809Y351308D01*
X162308Y350943D01*
X161918Y350309D01*
X161640Y349406D01*
X161473Y348235D01*
X161417Y346794D01*
X153543Y364173D01*
X161417Y373678D01*
X161473Y372126D01*
D02*
G37*
G36*
X111918Y338176D02*
X111951Y337786D01*
X112009Y337413D01*
X112092Y337057D01*
X112199Y336718D01*
X112331Y336397D01*
X112488Y336092D01*
X112670Y335806D01*
X112876Y335536D01*
X113108Y335284D01*
X111449Y333625D01*
X111196Y333856D01*
X110927Y334062D01*
X110640Y334244D01*
X110336Y334401D01*
X110014Y334533D01*
X109676Y334641D01*
X109320Y334723D01*
X108946Y334781D01*
X108556Y334814D01*
X108148Y334822D01*
X111910Y338584D01*
X111918Y338176D01*
D02*
G37*
G36*
Y328176D02*
X111951Y327786D01*
X112009Y327413D01*
X112092Y327057D01*
X112199Y326718D01*
X112331Y326397D01*
X112488Y326093D01*
X112670Y325806D01*
X112876Y325536D01*
X113108Y325284D01*
X111449Y323624D01*
X111196Y323856D01*
X110927Y324062D01*
X110640Y324244D01*
X110336Y324401D01*
X110014Y324533D01*
X109676Y324641D01*
X109320Y324723D01*
X108946Y324781D01*
X108556Y324814D01*
X108148Y324822D01*
X111910Y328584D01*
X111918Y328176D01*
D02*
G37*
G36*
X24359Y315611D02*
X24189Y315591D01*
X23993Y315530D01*
X23772Y315428D01*
X23524Y315283D01*
X23251Y315097D01*
X22952Y314870D01*
X22276Y314289D01*
X21497Y313542D01*
X17322Y317718D01*
X17716Y318120D01*
X18877Y319472D01*
X19063Y319745D01*
X19207Y319992D01*
X19310Y320214D01*
X19371Y320410D01*
X19390Y320580D01*
X24359Y315611D01*
D02*
G37*
G36*
X28329Y274146D02*
X27838Y268159D01*
X27837Y268151D01*
X27821Y268132D01*
X27789Y268101D01*
X27603Y267941D01*
X27143Y267569D01*
X28004Y274544D01*
X28329Y274146D01*
D02*
G37*
G36*
X20122Y254729D02*
X23966Y250886D01*
X23796Y250867D01*
X23600Y250806D01*
X23378Y250703D01*
X23131Y250559D01*
X22857Y250373D01*
X22558Y250145D01*
X21882Y249565D01*
X21104Y248817D01*
X16928Y252993D01*
X17322Y253396D01*
X18483Y254747D01*
X18669Y255020D01*
X18813Y255268D01*
X18916Y255489D01*
X18977Y255685D01*
X18996Y255855D01*
X19770Y255082D01*
X20453Y259520D01*
X20455Y259527D01*
X20473Y259545D01*
X20507Y259574D01*
X20706Y259720D01*
X21195Y260057D01*
X20122Y254729D01*
D02*
G37*
G36*
X146854Y245642D02*
X146889Y245191D01*
X146948Y244792D01*
X147029Y244447D01*
X147134Y244155D01*
X147262Y243916D01*
X147414Y243730D01*
X147589Y243598D01*
X147787Y243518D01*
X148008Y243492D01*
X143330D01*
X143552Y243518D01*
X143750Y243598D01*
X143925Y243730D01*
X144076Y243916D01*
X144205Y244155D01*
X144309Y244447D01*
X144391Y244792D01*
X144449Y245191D01*
X144484Y245642D01*
X144496Y246146D01*
X146843D01*
X146854Y245642D01*
D02*
G37*
G36*
X135043D02*
X135078Y245191D01*
X135136Y244792D01*
X135218Y244447D01*
X135323Y244155D01*
X135451Y243916D01*
X135603Y243730D01*
X135778Y243598D01*
X135976Y243518D01*
X136197Y243492D01*
X131519D01*
X131741Y243518D01*
X131939Y243598D01*
X132114Y243730D01*
X132265Y243916D01*
X132394Y244155D01*
X132499Y244447D01*
X132580Y244792D01*
X132638Y245191D01*
X132673Y245642D01*
X132685Y246146D01*
X135031D01*
X135043Y245642D01*
D02*
G37*
G36*
X161473Y262382D02*
X161640Y260876D01*
X161918Y259417D01*
X162308Y258004D01*
X162809Y256637D01*
X163422Y255315D01*
X164146Y254040D01*
X164981Y252812D01*
X165927Y251629D01*
X166985Y250492D01*
Y239357D01*
X165927Y240372D01*
X164981Y241190D01*
X164146Y241811D01*
X163422Y242236D01*
X162809Y242464D01*
X162308Y242495D01*
X161918Y242329D01*
X161640Y241966D01*
X161473Y241406D01*
X161417Y240650D01*
X153543Y254429D01*
X161417Y263934D01*
X161473Y262382D01*
D02*
G37*
G36*
X159598Y228923D02*
X159400Y228843D01*
X159225Y228711D01*
X159073Y228525D01*
X158945Y228286D01*
X158840Y227994D01*
X158758Y227649D01*
X158700Y227250D01*
X158665Y226799D01*
X158653Y226295D01*
X156307D01*
X156295Y226799D01*
X156260Y227250D01*
X156202Y227649D01*
X156121Y227994D01*
X156016Y228286D01*
X155887Y228525D01*
X155736Y228711D01*
X155561Y228843D01*
X155363Y228923D01*
X155141Y228949D01*
X159819D01*
X159598Y228923D01*
D02*
G37*
G36*
X147787D02*
X147589Y228843D01*
X147414Y228711D01*
X147262Y228525D01*
X147134Y228286D01*
X147029Y227994D01*
X146948Y227649D01*
X146889Y227250D01*
X146854Y226799D01*
X146843Y226295D01*
X144496D01*
X144484Y226799D01*
X144449Y227250D01*
X144391Y227649D01*
X144309Y227994D01*
X144205Y228286D01*
X144076Y228525D01*
X143925Y228711D01*
X143750Y228843D01*
X143552Y228923D01*
X143330Y228949D01*
X148008D01*
X147787Y228923D01*
D02*
G37*
G36*
X135976D02*
X135778Y228843D01*
X135603Y228711D01*
X135451Y228525D01*
X135323Y228286D01*
X135218Y227994D01*
X135136Y227649D01*
X135078Y227250D01*
X135043Y226799D01*
X135031Y226295D01*
X132685D01*
X132673Y226799D01*
X132638Y227250D01*
X132580Y227649D01*
X132499Y227994D01*
X132394Y228286D01*
X132265Y228525D01*
X132114Y228711D01*
X131939Y228843D01*
X131741Y228923D01*
X131519Y228949D01*
X136197D01*
X135976Y228923D01*
D02*
G37*
G36*
X154728Y198880D02*
X154763Y198437D01*
X154822Y198047D01*
X154903Y197708D01*
X155008Y197422D01*
X155136Y197187D01*
X155288Y197005D01*
X155463Y196875D01*
X155661Y196797D01*
X155883Y196770D01*
X151204D01*
X151426Y196797D01*
X151624Y196875D01*
X151799Y197005D01*
X151950Y197187D01*
X152079Y197422D01*
X152183Y197708D01*
X152265Y198047D01*
X152323Y198437D01*
X152358Y198880D01*
X152370Y199375D01*
X154717D01*
X154728Y198880D01*
D02*
G37*
G36*
X31695Y200537D02*
X31940Y200383D01*
X32230Y200247D01*
X32565Y200129D01*
X32945Y200029D01*
X33370Y199948D01*
X33840Y199885D01*
X34915Y199812D01*
X35520Y199803D01*
Y193898D01*
X34915Y193889D01*
X33370Y193753D01*
X32945Y193671D01*
X32565Y193572D01*
X32230Y193454D01*
X31940Y193318D01*
X31695Y193164D01*
X31495Y192992D01*
Y200709D01*
X31695Y200537D01*
D02*
G37*
G36*
X155917Y185929D02*
X156123Y185766D01*
X156341Y185621D01*
X156570Y185496D01*
X156811Y185390D01*
X157064Y185304D01*
X157328Y185236D01*
X157604Y185188D01*
X157891Y185159D01*
X158191Y185150D01*
Y182803D01*
X157891Y182793D01*
X157604Y182765D01*
X157328Y182717D01*
X157064Y182649D01*
X156811Y182562D01*
X156570Y182457D01*
X156341Y182332D01*
X156123Y182187D01*
X155917Y182024D01*
X155722Y181841D01*
Y186112D01*
X155917Y185929D01*
D02*
G37*
G36*
X23260Y189619D02*
X25435Y187777D01*
X26397Y187106D01*
X27275Y186603D01*
X28069Y186267D01*
X28779Y186098D01*
X29405Y186096D01*
X29947Y186262D01*
X30406Y186594D01*
X22067Y178256D01*
X22400Y178714D01*
X22565Y179256D01*
X22563Y179883D01*
X22395Y180593D01*
X22058Y181386D01*
X21555Y182264D01*
X20885Y183226D01*
X20047Y184272D01*
X17870Y186616D01*
X22046Y190791D01*
X23260Y189619D01*
D02*
G37*
G36*
X32209Y176284D02*
X31853Y175713D01*
X31539Y175102D01*
X31266Y174451D01*
X31036Y173760D01*
X30847Y173029D01*
X30700Y172257D01*
X30596Y171446D01*
X30533Y170595D01*
X30512Y169703D01*
X24606D01*
X24585Y170595D01*
X24418Y172257D01*
X24271Y173029D01*
X24082Y173760D01*
X23852Y174451D01*
X23579Y175102D01*
X23265Y175713D01*
X22909Y176284D01*
X22511Y176815D01*
X32607D01*
X32209Y176284D01*
D02*
G37*
G36*
X159663Y157252D02*
X159804Y155362D01*
X159927Y154594D01*
X160086Y153945D01*
X160279Y153413D01*
X160508Y153000D01*
X160772Y152705D01*
X161071Y152527D01*
X161405Y152468D01*
X153555D01*
X153590Y152527D01*
X153622Y152705D01*
X153650Y153000D01*
X153711Y154594D01*
X153740Y158374D01*
X159646D01*
X159663Y157252D01*
D02*
G37*
G36*
X30521Y153025D02*
X30657Y151481D01*
X30738Y151056D01*
X30838Y150675D01*
X30955Y150341D01*
X31091Y150050D01*
X31245Y149805D01*
X31417Y149606D01*
X23701D01*
X23873Y149805D01*
X24027Y150050D01*
X24163Y150341D01*
X24280Y150675D01*
X24380Y151056D01*
X24461Y151481D01*
X24525Y151951D01*
X24597Y153025D01*
X24606Y153630D01*
X30512D01*
X30521Y153025D01*
D02*
G37*
G36*
X132732Y155851D02*
X134362Y154515D01*
X135162Y153972D01*
X135952Y153512D01*
X136732Y153136D01*
X137502Y152844D01*
X138262Y152635D01*
X139012Y152510D01*
X139752Y152468D01*
X131902Y144618D01*
X131860Y145358D01*
X131735Y146108D01*
X131526Y146868D01*
X131234Y147638D01*
X130858Y148418D01*
X130398Y149208D01*
X129856Y150008D01*
X129229Y150818D01*
X128519Y151638D01*
X127726Y152468D01*
X131902Y156644D01*
X132732Y155851D01*
D02*
G37*
G36*
X32377Y134572D02*
X32948Y134215D01*
X33559Y133901D01*
X34210Y133628D01*
X34901Y133398D01*
X35633Y133209D01*
X36404Y133063D01*
X37215Y132958D01*
X38067Y132895D01*
X38958Y132874D01*
Y126969D01*
X38067Y126948D01*
X36404Y126780D01*
X35633Y126633D01*
X34901Y126445D01*
X34210Y126214D01*
X33559Y125942D01*
X32948Y125627D01*
X32377Y125271D01*
X31847Y124873D01*
Y134970D01*
X32377Y134572D01*
D02*
G37*
G36*
X160604Y109817D02*
X160921Y109548D01*
X161241Y109311D01*
X161566Y109105D01*
X161895Y108931D01*
X162228Y108789D01*
X162565Y108678D01*
X162906Y108599D01*
X163251Y108551D01*
X163601Y108535D01*
Y106189D01*
X163251Y106173D01*
X162906Y106126D01*
X162565Y106046D01*
X162228Y105936D01*
X161895Y105793D01*
X161566Y105619D01*
X161241Y105413D01*
X160921Y105176D01*
X160604Y104907D01*
X160292Y104606D01*
Y110118D01*
X160604Y109817D01*
D02*
G37*
G36*
X157782Y103437D02*
X157341Y103392D01*
X156920Y103326D01*
X156521Y103239D01*
X156142Y103132D01*
X155785Y103004D01*
X155448Y102855D01*
X155132Y102685D01*
X154838Y102495D01*
X154564Y102283D01*
X154311Y102051D01*
X152500Y103559D01*
X152740Y103822D01*
X152949Y104103D01*
X153129Y104401D01*
X153280Y104717D01*
X153401Y105050D01*
X153492Y105401D01*
X153554Y105770D01*
X153586Y106156D01*
X153589Y106560D01*
X153562Y106982D01*
X157782Y103437D01*
D02*
G37*
G36*
X28407Y97857D02*
X28587Y97770D01*
X28815Y97693D01*
X29090Y97626D01*
X29414Y97570D01*
X30206Y97487D01*
X31191Y97446D01*
X31755Y97441D01*
X31984Y91535D01*
X31422Y91529D01*
X30019Y91439D01*
X29647Y91384D01*
X29322Y91318D01*
X29044Y91239D01*
X28814Y91149D01*
X28631Y91046D01*
X28496Y90931D01*
X28276Y97955D01*
X28407Y97857D01*
D02*
G37*
G36*
X22293Y85434D02*
X23645Y84273D01*
X23918Y84087D01*
X24165Y83943D01*
X24387Y83840D01*
X24583Y83779D01*
X24753Y83760D01*
X19784Y78790D01*
X19764Y78960D01*
X19703Y79156D01*
X19601Y79378D01*
X19456Y79625D01*
X19271Y79899D01*
X19043Y80198D01*
X18462Y80873D01*
X17715Y81652D01*
X21891Y85828D01*
X22293Y85434D01*
D02*
G37*
G36*
X133847Y81588D02*
X133601Y81316D01*
X133386Y81024D01*
X133200Y80711D01*
X133046Y80377D01*
X132922Y80023D01*
X132828Y79648D01*
X132765Y79252D01*
X132732Y78836D01*
X132730Y78399D01*
X132758Y77941D01*
X128342Y81682D01*
X128822Y81728D01*
X129709Y81885D01*
X130115Y81995D01*
X130498Y82127D01*
X130856Y82280D01*
X131190Y82454D01*
X131499Y82649D01*
X131784Y82866D01*
X132045Y83104D01*
X133847Y81588D01*
D02*
G37*
G36*
X346413Y430324D02*
X348232Y429570D01*
X349870Y428476D01*
X353543Y424803D01*
Y270472D01*
X352535Y269464D01*
X352535D01*
X351839Y268768D01*
X350201Y267673D01*
X348381Y266920D01*
X346449Y266535D01*
X333465D01*
X331366Y268634D01*
X330272Y270271D01*
X329518Y272091D01*
X329409Y272640D01*
X329498Y273087D01*
X329516Y273359D01*
X329551Y273630D01*
Y274615D01*
Y294188D01*
X330013Y294380D01*
X330379Y294014D01*
X331475Y293281D01*
X332693Y292777D01*
X332810Y292754D01*
X332801Y292771D01*
X332506Y293252D01*
X332157Y293743D01*
X331754Y294244D01*
X330787Y295276D01*
X334055D01*
Y299213D01*
Y305906D01*
X333986D01*
X332693Y305648D01*
X331475Y305144D01*
X330379Y304411D01*
X330013Y304045D01*
X329551Y304237D01*
Y344488D01*
X329457Y345208D01*
X329179Y345878D01*
X329134Y345937D01*
Y353619D01*
X329176Y353667D01*
X329324Y353888D01*
X329444Y354132D01*
X329580Y354368D01*
X329682Y354613D01*
X329752Y354876D01*
X329840Y355134D01*
X329892Y355394D01*
X329909Y355666D01*
X329945Y355936D01*
Y384383D01*
X330445Y384521D01*
X331475Y383833D01*
X332693Y383328D01*
X333986Y383071D01*
X334055D01*
Y389764D01*
Y396457D01*
X333986D01*
X332693Y396199D01*
X331475Y395695D01*
X330445Y395006D01*
X329945Y395144D01*
Y425197D01*
X329851Y425914D01*
X332419Y428481D01*
X332419Y428481D01*
Y428481D01*
X332948Y429011D01*
X334193Y429843D01*
X335577Y430416D01*
X337046Y430709D01*
X344481D01*
X346413Y430324D01*
D02*
G37*
G36*
X274450Y427809D02*
X274526Y427610D01*
X274653Y427435D01*
X274830Y427283D01*
X275057Y427154D01*
X275335Y427049D01*
X275664Y426967D01*
X276043Y426909D01*
X276473Y426874D01*
X276953Y426862D01*
Y424516D01*
X276473Y424504D01*
X276043Y424469D01*
X275664Y424411D01*
X275335Y424329D01*
X275057Y424224D01*
X274830Y424095D01*
X274653Y423943D01*
X274526Y423768D01*
X274450Y423569D01*
X274425Y423347D01*
Y428031D01*
X274450Y427809D01*
D02*
G37*
G36*
X213793Y416552D02*
X213682Y416674D01*
X213555Y416783D01*
X213410Y416879D01*
X213248Y416962D01*
X213070Y417033D01*
X212874Y417090D01*
X212662Y417135D01*
X212432Y417167D01*
X212186Y417186D01*
X211922Y417193D01*
X212197Y419539D01*
X212461Y419544D01*
X212943Y419584D01*
X213162Y419619D01*
X213365Y419663D01*
X213553Y419717D01*
X213725Y419782D01*
X213882Y419856D01*
X214024Y419940D01*
X214151Y420034D01*
X213793Y416552D01*
D02*
G37*
G36*
X208787Y420798D02*
X209066Y420534D01*
X209353Y420301D01*
X209648Y420099D01*
X209952Y419928D01*
X210264Y419788D01*
X210585Y419679D01*
X210914Y419601D01*
X211252Y419555D01*
X211597Y419539D01*
X211431Y417193D01*
X211093Y417179D01*
X210758Y417137D01*
X210425Y417066D01*
X210094Y416968D01*
X209766Y416841D01*
X209440Y416686D01*
X209116Y416503D01*
X208795Y416292D01*
X208475Y416053D01*
X208158Y415785D01*
X208517Y421093D01*
X208787Y420798D01*
D02*
G37*
G36*
X274166Y414082D02*
X273949Y413738D01*
X273757Y413387D01*
X273590Y413028D01*
X273450Y412663D01*
X273335Y412290D01*
X273245Y411910D01*
X273181Y411523D01*
X273143Y411129D01*
X273130Y410728D01*
X270177D01*
X270164Y411129D01*
X270126Y411523D01*
X270062Y411910D01*
X269972Y412290D01*
X269857Y412663D01*
X269717Y413028D01*
X269550Y413387D01*
X269358Y413738D01*
X269141Y414082D01*
X268898Y414419D01*
X274409D01*
X274166Y414082D01*
D02*
G37*
G36*
X273143Y407769D02*
X273181Y407374D01*
X273245Y406987D01*
X273335Y406608D01*
X273450Y406235D01*
X273590Y405869D01*
X273757Y405511D01*
X273949Y405160D01*
X274166Y404816D01*
X274409Y404479D01*
X268898D01*
X269141Y404816D01*
X269358Y405160D01*
X269550Y405511D01*
X269717Y405869D01*
X269857Y406235D01*
X269972Y406608D01*
X270062Y406987D01*
X270126Y407374D01*
X270164Y407769D01*
X270177Y408170D01*
X273130D01*
X273143Y407769D01*
D02*
G37*
G36*
X272876Y398929D02*
X272647Y399095D01*
X272377Y399177D01*
X272064Y399176D01*
X271710Y399091D01*
X271313Y398923D01*
X270875Y398671D01*
X270394Y398336D01*
X269871Y397917D01*
X268700Y396829D01*
X266612Y398917D01*
X267198Y399523D01*
X268119Y400610D01*
X268454Y401091D01*
X268706Y401530D01*
X268874Y401926D01*
X268959Y402281D01*
X268960Y402593D01*
X268878Y402864D01*
X268712Y403092D01*
X272876Y398929D01*
D02*
G37*
G36*
X321216Y429537D02*
X323036Y428783D01*
X324673Y427689D01*
X325370Y426992D01*
X327165Y425197D01*
Y356069D01*
Y355936D01*
X327114Y355677D01*
X327012Y355432D01*
X326865Y355212D01*
X326772Y355118D01*
X325370Y353716D01*
X325370D01*
X324673Y353020D01*
X323036Y351925D01*
X321216Y351172D01*
X319284Y350787D01*
X298819D01*
Y352303D01*
D01*
Y350787D01*
X287402D01*
Y360611D01*
X287402Y360611D01*
X287402Y360611D01*
Y360611D01*
X287465Y360553D01*
X287608Y360458D01*
X287686Y360425D01*
X287402Y360611D01*
Y425197D01*
X292126Y429921D01*
X319284D01*
X321216Y429537D01*
D02*
G37*
G36*
X205631Y356161D02*
X205445Y356128D01*
X205207Y356026D01*
X204918Y355857D01*
X204705Y355709D01*
X205592Y354822D01*
X205184Y354814D01*
X204794Y354781D01*
X204420Y354723D01*
X204065Y354641D01*
X203726Y354533D01*
X203404Y354401D01*
X203100Y354244D01*
X202814Y354062D01*
X202663Y353947D01*
X201450Y352783D01*
X199791Y354442D01*
X200433Y355092D01*
X201082Y355825D01*
X201252Y356093D01*
X201409Y356397D01*
X201541Y356718D01*
X201648Y357057D01*
X201731Y357413D01*
X201789Y357786D01*
X201822Y358176D01*
X201830Y358584D01*
X202717Y357697D01*
X202865Y357910D01*
X203034Y358199D01*
X203135Y358437D01*
X203169Y358624D01*
X205631Y356161D01*
D02*
G37*
G36*
X263272Y359161D02*
X261429Y357319D01*
X261429Y357353D01*
X261392Y357422D01*
X261318Y357523D01*
X261208Y357657D01*
X260655Y358260D01*
X259770Y359161D01*
X261429Y360820D01*
X263272Y359161D01*
D02*
G37*
G36*
X251957Y358421D02*
X252028Y358222D01*
X252147Y358046D01*
X252314Y357894D01*
X252529Y357765D01*
X252791Y357660D01*
X253101Y357578D01*
X253459Y357519D01*
X253864Y357484D01*
X254317Y357472D01*
Y355126D01*
X253864Y355114D01*
X253459Y355079D01*
X253101Y355021D01*
X252791Y354939D01*
X252529Y354833D01*
X252314Y354704D01*
X252147Y354552D01*
X252028Y354377D01*
X251957Y354178D01*
X251933Y353955D01*
Y358643D01*
X251957Y358421D01*
D02*
G37*
G36*
X261429Y354161D02*
Y351626D01*
X261406Y351664D01*
X261335Y351698D01*
X261218Y351729D01*
X261054Y351755D01*
X260843Y351777D01*
X259928Y351819D01*
X259083Y351827D01*
Y354173D01*
X261429Y354161D01*
D02*
G37*
G36*
X320428Y349222D02*
X322248Y348468D01*
X323886Y347374D01*
X324583Y346677D01*
X324583Y346677D01*
X326772Y344488D01*
Y274615D01*
Y273630D01*
X326387Y271698D01*
X325634Y269878D01*
X324539Y268240D01*
X323843Y267544D01*
X323843D01*
X323843Y267544D01*
X322441Y266142D01*
X295677D01*
X293745Y266526D01*
X291925Y267280D01*
X290287Y268374D01*
X287008Y271654D01*
Y348656D01*
Y348788D01*
X287059Y349048D01*
X287161Y349292D01*
X287295Y349494D01*
X287338Y349502D01*
Y349502D01*
X287478D01*
X287579Y349482D01*
X287673Y349443D01*
X287759Y349386D01*
X287795Y349350D01*
D01*
X287795Y349350D01*
X287795D01*
X287795Y349350D01*
X287856Y349411D01*
X288000Y349507D01*
X288159Y349573D01*
X288328Y349606D01*
X318496D01*
X320428Y349222D01*
D02*
G37*
G36*
X211975Y340103D02*
X208999Y336865D01*
X207625Y341856D01*
X207866Y341731D01*
X208111Y341649D01*
X208362Y341610D01*
X208617Y341615D01*
X208877Y341663D01*
X209142Y341755D01*
X209412Y341890D01*
X209687Y342068D01*
X209966Y342290D01*
X210251Y342555D01*
X211975Y340103D01*
D02*
G37*
G36*
X242091Y339620D02*
X241899Y339438D01*
X241730Y339234D01*
X241583Y339010D01*
X241459Y338764D01*
X241357Y338497D01*
X241279Y338209D01*
X241222Y337900D01*
X241188Y337570D01*
X241177Y337218D01*
X238831D01*
X238819Y337676D01*
X238784Y338084D01*
X238725Y338443D01*
X238643Y338753D01*
X238537Y339013D01*
X238408Y339224D01*
X238256Y339386D01*
X238080Y339499D01*
X237880Y339562D01*
X237657Y339577D01*
X242305Y339782D01*
X242091Y339620D01*
D02*
G37*
G36*
X228655Y337296D02*
X228693Y336902D01*
X228757Y336515D01*
X228846Y336135D01*
X228961Y335763D01*
X229102Y335397D01*
X229269Y335038D01*
X229460Y334687D01*
X229678Y334343D01*
X229921Y334006D01*
X224410D01*
X224653Y334343D01*
X224870Y334687D01*
X225062Y335038D01*
X225229Y335397D01*
X225369Y335763D01*
X225484Y336135D01*
X225574Y336515D01*
X225638Y336902D01*
X225676Y337296D01*
X225689Y337698D01*
X228642D01*
X228655Y337296D01*
D02*
G37*
G36*
X208583Y331057D02*
X208838Y330856D01*
X209107Y330678D01*
X209391Y330524D01*
X209691Y330394D01*
X210005Y330288D01*
X210334Y330205D01*
X210678Y330146D01*
X211037Y330110D01*
X211411Y330098D01*
Y327146D01*
X211037Y327134D01*
X210678Y327098D01*
X210334Y327039D01*
X210005Y326956D01*
X209691Y326850D01*
X209391Y326720D01*
X209107Y326566D01*
X208838Y326388D01*
X208583Y326187D01*
X208344Y325962D01*
Y331282D01*
X208583Y331057D01*
D02*
G37*
G36*
X226904Y320324D02*
X229921D01*
X229678Y319988D01*
X229460Y319647D01*
X229269Y319301D01*
X229102Y318950D01*
X228961Y318593D01*
X228846Y318231D01*
X228757Y317864D01*
X228693Y317492D01*
X228655Y317115D01*
X228642Y316732D01*
X228642Y316732D01*
X228642Y316732D01*
X228655Y316331D01*
X228693Y315937D01*
X228757Y315550D01*
X228846Y315170D01*
X228961Y314798D01*
X229102Y314432D01*
X229269Y314074D01*
X229460Y313723D01*
X229678Y313379D01*
X229921Y313042D01*
X224410D01*
X224653Y313379D01*
X224870Y313723D01*
X225062Y314074D01*
X225229Y314432D01*
X225369Y314798D01*
X225448Y315054D01*
X225355Y315392D01*
X225167Y315904D01*
X224937Y316400D01*
X224666Y316878D01*
X224353Y317339D01*
X223998Y317782D01*
X223601Y318209D01*
Y322385D01*
X223998Y322013D01*
X224353Y321734D01*
X224666Y321548D01*
X224937Y321454D01*
X225167Y321453D01*
X225355Y321544D01*
X225501Y321728D01*
X225606Y322005D01*
X225668Y322373D01*
X225689Y322835D01*
X226904Y320324D01*
D02*
G37*
G36*
X227840Y298633D02*
X227632Y298670D01*
X227446Y298649D01*
X227282Y298569D01*
X227140Y298430D01*
X227020Y298233D01*
X226921Y297977D01*
X226845Y297663D01*
X226790Y297291D01*
X226757Y296859D01*
X226746Y296370D01*
X224400Y297038D01*
X224262Y299716D01*
X227840Y298633D01*
D02*
G37*
G36*
X318018Y253761D02*
X317836Y253570D01*
X317530Y253199D01*
X317405Y253017D01*
X317301Y252839D01*
X317215Y252664D01*
X317149Y252492D01*
X317102Y252323D01*
X317075Y252156D01*
X317067Y251993D01*
X314592Y254468D01*
X314755Y254476D01*
X314921Y254504D01*
X315090Y254551D01*
X315262Y254617D01*
X315438Y254702D01*
X315616Y254807D01*
X315797Y254931D01*
X315981Y255075D01*
X316169Y255238D01*
X316359Y255420D01*
X318018Y253761D01*
D02*
G37*
G36*
X185240Y245642D02*
X185275Y245191D01*
X185333Y244792D01*
X185415Y244447D01*
X185520Y244155D01*
X185648Y243916D01*
X185800Y243730D01*
X185975Y243598D01*
X186173Y243518D01*
X186394Y243492D01*
X181716D01*
X181938Y243518D01*
X182136Y243598D01*
X182311Y243730D01*
X182462Y243916D01*
X182590Y244155D01*
X182695Y244447D01*
X182777Y244792D01*
X182835Y245191D01*
X182870Y245642D01*
X182882Y246146D01*
X185228D01*
X185240Y245642D01*
D02*
G37*
G36*
X188668Y234942D02*
X188202Y234459D01*
X187469Y233595D01*
X187203Y233213D01*
X187003Y232865D01*
X186869Y232550D01*
X186801Y232268D01*
X186800Y232019D01*
X186865Y231805D01*
X186996Y231623D01*
X183690Y234930D01*
X183872Y234798D01*
X184086Y234733D01*
X184335Y234734D01*
X184616Y234802D01*
X184932Y234936D01*
X185280Y235136D01*
X185662Y235403D01*
X186077Y235736D01*
X187009Y236601D01*
X188668Y234942D01*
D02*
G37*
G36*
X210941Y235058D02*
X210759Y234882D01*
X210597Y234684D01*
X210458Y234465D01*
X210339Y234224D01*
X210243Y233961D01*
X210168Y233677D01*
X210114Y233371D01*
X210082Y233043D01*
X210071Y232694D01*
X207724D01*
X207714Y233043D01*
X207681Y233371D01*
X207628Y233677D01*
X207553Y233961D01*
X207456Y234224D01*
X207338Y234465D01*
X207198Y234684D01*
X207037Y234882D01*
X206854Y235058D01*
X206650Y235213D01*
X211145D01*
X210941Y235058D01*
D02*
G37*
G36*
X201054Y231312D02*
X200944Y231307D01*
X200846Y231264D01*
X200760Y231183D01*
X200684Y231064D01*
X200621Y230906D01*
X200569Y230711D01*
X200528Y230478D01*
X200500Y230206D01*
X200476Y229549D01*
X198131D01*
X198176Y231664D01*
X201054Y231312D01*
D02*
G37*
G36*
X173729Y232119D02*
X173705Y231863D01*
X173736Y231585D01*
X173821Y231286D01*
X173961Y230965D01*
X174155Y230622D01*
X174404Y230258D01*
X174708Y229872D01*
X175066Y229464D01*
X175479Y229035D01*
X174776Y226419D01*
X174283Y226895D01*
X173420Y227626D01*
X173050Y227882D01*
X172720Y228063D01*
X172431Y228171D01*
X172183Y228205D01*
X171975Y228166D01*
X171809Y228052D01*
X171682Y227866D01*
X173808Y232353D01*
X173729Y232119D01*
D02*
G37*
G36*
X194101Y198398D02*
X194705Y197898D01*
X195006Y197687D01*
X195307Y197502D01*
X195607Y197345D01*
X195907Y197213D01*
X196206Y197108D01*
X196504Y197029D01*
X196803Y196977D01*
X191862Y195657D01*
X192086Y195746D01*
X192236Y195877D01*
X192312Y196047D01*
X192316Y196258D01*
X192245Y196510D01*
X192102Y196802D01*
X191885Y197135D01*
X191594Y197508D01*
X191230Y197921D01*
X190793Y198375D01*
X193798Y198688D01*
X194101Y198398D01*
D02*
G37*
G36*
X213667Y198521D02*
X214500Y197819D01*
X214875Y197560D01*
X215221Y197362D01*
X215539Y197225D01*
X215828Y197150D01*
X216089Y197136D01*
X216322Y197184D01*
X216526Y197292D01*
X212708Y194498D01*
X212863Y194656D01*
X212947Y194851D01*
X212961Y195085D01*
X212904Y195356D01*
X212777Y195664D01*
X212579Y196010D01*
X212310Y196394D01*
X211971Y196816D01*
X211081Y197772D01*
X213208Y198963D01*
X213667Y198521D01*
D02*
G37*
G36*
X172627Y198222D02*
X173491Y197490D01*
X173873Y197223D01*
X174222Y197023D01*
X174537Y196889D01*
X174818Y196821D01*
X175067Y196820D01*
X175282Y196885D01*
X175463Y197017D01*
X172157Y193710D01*
X172288Y193892D01*
X172353Y194106D01*
X172352Y194355D01*
X172284Y194636D01*
X172151Y194952D01*
X171950Y195300D01*
X171684Y195682D01*
X171351Y196098D01*
X170485Y197029D01*
X172145Y198688D01*
X172627Y198222D01*
D02*
G37*
G36*
X233055Y196850D02*
X230709Y193331D01*
X230685Y193777D01*
X230615Y194175D01*
X230498Y194527D01*
X230333Y194832D01*
X230122Y195090D01*
X229864Y195302D01*
X229559Y195466D01*
X229207Y195583D01*
X228808Y195654D01*
X228362Y195677D01*
Y198024D01*
X230615Y198035D01*
X230685Y198038D01*
X230709Y198041D01*
X233055Y196850D01*
D02*
G37*
G36*
X219864Y186708D02*
X219659Y186490D01*
X219476Y186267D01*
X219315Y186037D01*
X219176Y185803D01*
X219058Y185563D01*
X218963Y185318D01*
X218889Y185067D01*
X218837Y184811D01*
X218807Y184549D01*
X218799Y184283D01*
X215778Y187303D01*
X216045Y187311D01*
X216307Y187341D01*
X216563Y187393D01*
X216814Y187467D01*
X217059Y187562D01*
X217299Y187680D01*
X217533Y187819D01*
X217762Y187980D01*
X217986Y188163D01*
X218205Y188368D01*
X219864Y186708D01*
D02*
G37*
G36*
X192703Y181841D02*
X192508Y182024D01*
X192302Y182187D01*
X192085Y182332D01*
X191855Y182457D01*
X191614Y182562D01*
X191361Y182649D01*
X191097Y182717D01*
X190821Y182765D01*
X190534Y182793D01*
X190235Y182803D01*
Y185150D01*
X190534Y185159D01*
X190821Y185188D01*
X191097Y185236D01*
X191361Y185304D01*
X191614Y185390D01*
X191855Y185496D01*
X192085Y185621D01*
X192302Y185766D01*
X192508Y185929D01*
X192703Y186112D01*
Y181841D01*
D02*
G37*
G36*
X177570Y185929D02*
X177777Y185766D01*
X177994Y185621D01*
X178224Y185496D01*
X178465Y185390D01*
X178717Y185304D01*
X178982Y185236D01*
X179258Y185188D01*
X179545Y185159D01*
X179844Y185150D01*
Y182803D01*
X179545Y182793D01*
X179258Y182765D01*
X178982Y182717D01*
X178717Y182649D01*
X178465Y182562D01*
X178224Y182457D01*
X177994Y182332D01*
X177777Y182187D01*
X177570Y182024D01*
X177376Y181841D01*
Y186112D01*
X177570Y185929D01*
D02*
G37*
G36*
X173018Y181841D02*
X172823Y182024D01*
X172617Y182187D01*
X172399Y182332D01*
X172170Y182457D01*
X171929Y182562D01*
X171676Y182649D01*
X171412Y182717D01*
X171136Y182765D01*
X170849Y182793D01*
X170549Y182803D01*
Y185150D01*
X170849Y185159D01*
X171136Y185188D01*
X171412Y185236D01*
X171676Y185304D01*
X171929Y185390D01*
X172170Y185496D01*
X172399Y185621D01*
X172617Y185766D01*
X172823Y185929D01*
X173018Y186112D01*
Y181841D01*
D02*
G37*
G36*
X196835Y181603D02*
X196671Y181397D01*
X196527Y181179D01*
X196402Y180950D01*
X196296Y180709D01*
X196209Y180456D01*
X196142Y180192D01*
X196094Y179916D01*
X196065Y179628D01*
X196055Y179329D01*
X193709D01*
X193699Y179628D01*
X193670Y179916D01*
X193622Y180192D01*
X193555Y180456D01*
X193468Y180709D01*
X193362Y180950D01*
X193237Y181179D01*
X193093Y181397D01*
X192929Y181603D01*
X192746Y181797D01*
X197018D01*
X196835Y181603D01*
D02*
G37*
%LPC*%
G36*
X335305Y396457D02*
X335236D01*
Y390354D01*
X341339D01*
Y390423D01*
X341081Y391716D01*
X340577Y392934D01*
X339844Y394030D01*
X338912Y394963D01*
X337816Y395695D01*
X336598Y396199D01*
X335305Y396457D01*
D02*
G37*
G36*
X341339Y389173D02*
X335236D01*
Y383071D01*
X335305D01*
X336598Y383328D01*
X337816Y383833D01*
X338912Y384565D01*
X339844Y385497D01*
X340577Y386594D01*
X341081Y387811D01*
X341339Y389105D01*
Y389173D01*
D02*
G37*
G36*
X335305Y305906D02*
X335236D01*
Y299803D01*
X341339D01*
Y299872D01*
X341081Y301165D01*
X340577Y302383D01*
X339844Y303479D01*
X338912Y304411D01*
X337816Y305144D01*
X336598Y305648D01*
X335305Y305906D01*
D02*
G37*
G36*
X341339Y298622D02*
X335236D01*
Y295276D01*
X338504D01*
X337994Y294755D01*
X337135Y293743D01*
X336786Y293252D01*
X336490Y292771D01*
X336481Y292754D01*
X336598Y292777D01*
X337816Y293281D01*
X338912Y294014D01*
X339844Y294946D01*
X340577Y296042D01*
X341081Y297260D01*
X341339Y298553D01*
Y298622D01*
D02*
G37*
G36*
X321654Y396491D02*
X319488D01*
Y390354D01*
X325624D01*
Y392520D01*
X325489Y393547D01*
X325093Y394505D01*
X324462Y395328D01*
X323639Y395959D01*
X322681Y396355D01*
X321654Y396491D01*
D02*
G37*
G36*
X318307D02*
X316142D01*
X315114Y396355D01*
X314156Y395959D01*
X313334Y395328D01*
X312703Y394505D01*
X312306Y393547D01*
X312171Y392520D01*
Y390354D01*
X318307D01*
Y396491D01*
D02*
G37*
G36*
X325624Y389173D02*
X319488D01*
Y383037D01*
X321654D01*
X322681Y383172D01*
X323639Y383569D01*
X324462Y384200D01*
X325093Y385022D01*
X325489Y385980D01*
X325624Y387008D01*
Y389173D01*
D02*
G37*
G36*
X318307D02*
X312171D01*
Y387008D01*
X312306Y385980D01*
X312703Y385022D01*
X313334Y384200D01*
X314156Y383569D01*
X315114Y383172D01*
X316142Y383037D01*
X318307D01*
Y389173D01*
D02*
G37*
G36*
X293898Y360354D02*
D01*
X298819D01*
X293898D01*
D02*
G37*
G36*
X288021D02*
X288021D01*
X292717D01*
D01*
X288021D01*
D02*
G37*
G36*
X298819Y355854D02*
Y353484D01*
D01*
Y354933D01*
X298819Y355354D01*
X298819Y355854D01*
D02*
G37*
G36*
Y345854D02*
Y343484D01*
D01*
Y344933D01*
X298819Y345354D01*
X298819Y345854D01*
D02*
G37*
G36*
Y342303D02*
D01*
Y340433D01*
Y342303D01*
D02*
G37*
G36*
X321654Y305940D02*
X319488D01*
Y299803D01*
X325624D01*
Y301969D01*
X325489Y302996D01*
X325093Y303954D01*
X324462Y304776D01*
X323639Y305408D01*
X322681Y305804D01*
X321654Y305940D01*
D02*
G37*
G36*
X318307D02*
X316142D01*
X315114Y305804D01*
X314156Y305408D01*
X313334Y304776D01*
X312703Y303954D01*
X312306Y302996D01*
X312171Y301969D01*
Y299803D01*
X318307D01*
Y305940D01*
D02*
G37*
G36*
X325624Y298622D02*
X319488D01*
Y292486D01*
X321654D01*
X322681Y292621D01*
X323639Y293018D01*
X324462Y293649D01*
X325093Y294471D01*
X325489Y295429D01*
X325624Y296457D01*
Y298622D01*
D02*
G37*
G36*
X318307D02*
X312171D01*
Y296457D01*
X312306Y295429D01*
X312703Y294471D01*
X313334Y293649D01*
X314156Y293018D01*
X315114Y292621D01*
X316142Y292486D01*
X318307D01*
Y298622D01*
D02*
G37*
%LPD*%
D18*
X104114Y137008D02*
D03*
X111634D02*
D03*
D19*
X170866Y239862D02*
D03*
Y231004D02*
D03*
X145669Y240650D02*
D03*
Y231791D02*
D03*
X133858Y240650D02*
D03*
Y231791D02*
D03*
X227165Y322736D02*
D03*
Y331594D02*
D03*
Y301772D02*
D03*
Y310630D02*
D03*
X157480Y231791D02*
D03*
Y240650D02*
D03*
X184055Y231791D02*
D03*
Y240650D02*
D03*
X271654Y416831D02*
D03*
Y425689D02*
D03*
Y393209D02*
D03*
Y402067D02*
D03*
D20*
X239370Y356299D02*
D03*
X248819D02*
D03*
Y342520D02*
D03*
X239370D02*
D03*
D21*
X200551Y239961D02*
D03*
Y232480D02*
D03*
X208898Y236221D02*
D03*
D22*
X293307Y342894D02*
D03*
Y347894D02*
D03*
Y352894D02*
D03*
Y357894D02*
D03*
X265748D02*
D03*
Y352894D02*
D03*
Y347894D02*
D03*
Y342894D02*
D03*
D23*
X24415Y305038D02*
D03*
X24409Y320630D02*
D03*
Y336221D02*
D03*
X24022Y240313D02*
D03*
X24016Y255906D02*
D03*
Y271496D02*
D03*
X24803Y94331D02*
D03*
Y78740D02*
D03*
X24809Y63148D02*
D03*
D24*
X53937Y444488D02*
D03*
X318898Y389764D02*
D03*
Y299213D02*
D03*
D25*
X69685Y444488D02*
D03*
X27559Y145669D02*
D03*
Y196850D02*
D03*
X334646Y389764D02*
D03*
Y299213D02*
D03*
D26*
X11417Y376299D02*
D03*
D27*
Y386399D02*
D03*
Y396199D02*
D03*
Y406299D02*
D03*
D28*
X27559Y129921D02*
D03*
Y181102D02*
D03*
D29*
X157480Y148543D02*
D03*
X135827D02*
D03*
D30*
X157480Y107362D02*
D03*
X135827D02*
D03*
D31*
X152264Y85433D02*
D03*
X128642Y77559D02*
D03*
Y29528D02*
D03*
X175886D02*
D03*
Y77559D02*
D03*
D33*
X108110Y428622D02*
D03*
Y418622D02*
D03*
Y408622D02*
D03*
Y398622D02*
D03*
Y388622D02*
D03*
Y378622D02*
D03*
Y368622D02*
D03*
Y358622D02*
D03*
Y348622D02*
D03*
Y338622D02*
D03*
Y328622D02*
D03*
Y318622D02*
D03*
Y308622D02*
D03*
Y298622D02*
D03*
Y288622D02*
D03*
X205630Y428622D02*
D03*
Y418622D02*
D03*
Y408622D02*
D03*
Y398622D02*
D03*
Y388622D02*
D03*
Y378622D02*
D03*
Y368622D02*
D03*
Y358622D02*
D03*
Y348622D02*
D03*
Y338622D02*
D03*
Y328622D02*
D03*
Y318622D02*
D03*
Y308622D02*
D03*
Y298622D02*
D03*
Y288622D02*
D03*
D34*
X175197Y183976D02*
D03*
X153543D02*
D03*
X215748Y184252D02*
D03*
X194882Y183976D02*
D03*
X114173Y192008D02*
D03*
D35*
X175197Y193976D02*
D03*
X153543D02*
D03*
X215748Y194252D02*
D03*
X194882Y193976D02*
D03*
X114173Y182008D02*
D03*
D36*
X80709Y96457D02*
D03*
Y41339D02*
D03*
D37*
X350787Y343701D02*
D03*
Y366142D02*
D03*
X334252Y269291D02*
D03*
X350394Y271654D02*
D03*
X351575Y304724D02*
D03*
X350394Y334252D02*
D03*
Y357874D02*
D03*
X351575Y383465D02*
D03*
X351181Y407874D02*
D03*
X349606Y425197D02*
D03*
X338583Y426772D02*
D03*
X290551Y388583D02*
D03*
X290945Y300000D02*
D03*
X292913Y271260D02*
D03*
X322441Y270472D02*
D03*
Y343307D02*
D03*
X322835Y356693D02*
D03*
X290945Y333071D02*
D03*
X291339Y366535D02*
D03*
X322047Y425591D02*
D03*
X294488D02*
D03*
X197835Y227362D02*
D03*
X240158Y336614D02*
D03*
X196850Y173622D02*
D03*
X259842Y360236D02*
D03*
X244094Y362205D02*
D03*
X265748Y387795D02*
D03*
X341146Y13685D02*
D03*
Y26185D02*
D03*
X328146D02*
D03*
X327646Y13185D02*
D03*
X325646Y19685D02*
D03*
X343646D02*
D03*
X334646Y10685D02*
D03*
Y28685D02*
D03*
X26185Y13685D02*
D03*
Y26185D02*
D03*
X13185D02*
D03*
X12685Y13185D02*
D03*
X10685Y19685D02*
D03*
X28685D02*
D03*
X19685Y10685D02*
D03*
Y28685D02*
D03*
X341146Y446756D02*
D03*
Y459256D02*
D03*
X328146D02*
D03*
X327646Y446256D02*
D03*
X325646Y452756D02*
D03*
X343646D02*
D03*
X334646Y443756D02*
D03*
Y461756D02*
D03*
X26185Y446756D02*
D03*
Y459256D02*
D03*
X13185D02*
D03*
X12685Y446256D02*
D03*
X10685Y452756D02*
D03*
X28685D02*
D03*
X19685Y443756D02*
D03*
Y461756D02*
D03*
D38*
X16362Y258834D02*
G03*
X23434Y255906I7071J7071D01*
G01*
X8296Y240185D02*
G03*
X5512Y233465I6721J-6721D01*
G01*
Y102174D02*
G03*
X8441Y95103I10000J0D01*
G01*
X9228Y305449D02*
G03*
X6299Y298377I7071J-7071D01*
G01*
X32614Y268567D02*
G03*
X25543Y271496I-7071J-7071D01*
G01*
X40378Y233292D02*
G03*
X43307Y240363I-7071J7071D01*
G01*
X14961Y197843D02*
G03*
X17890Y190772I10000J0D01*
G01*
X6299Y268898D02*
X16362Y258834D01*
X23434Y255906D02*
X24016D01*
X5512Y102174D02*
Y233465D01*
X8441Y95103D02*
X24803Y78740D01*
X8296Y240185D02*
X24016Y255906D01*
X9228Y305449D02*
X24409Y320630D01*
X6299Y268898D02*
Y298377D01*
X24016Y271496D02*
X25543D01*
X32614Y268567D02*
X43307Y257874D01*
X14961Y207874D02*
X40378Y233292D01*
X14961Y197843D02*
Y207874D01*
X17890Y190772D02*
X27559Y181102D01*
X43307Y240363D02*
Y257874D01*
X27559Y196850D02*
X49213D01*
X54055Y192008D01*
X23622Y94488D02*
X78527D01*
X24292Y429251D02*
X38700D01*
X53937Y444488D01*
X3740Y383976D02*
X11417Y376299D01*
X3740Y408700D02*
X24292Y429251D01*
X3740Y383976D02*
Y408700D01*
X11417Y376299D02*
X65039D01*
X90551Y350787D01*
Y229444D02*
Y350787D01*
X94011Y225984D02*
X114961D01*
X90551Y229444D02*
X94011Y225984D01*
X114961D02*
X140945Y200000D01*
Y179528D02*
Y200000D01*
Y179528D02*
X151181Y169291D01*
X153234D02*
X156693Y165832D01*
X151181Y169291D02*
X153234D01*
X156693Y150787D02*
Y165832D01*
X248819Y300000D02*
Y336614D01*
X212598Y263779D02*
X248819Y300000D01*
X54055Y192008D02*
X114173D01*
X27559Y145669D02*
Y181102D01*
X112894Y130295D02*
Y137795D01*
X112697D02*
X112894D01*
Y130295D02*
X135827Y107362D01*
X114173Y170197D02*
Y182008D01*
Y170197D02*
X135827Y148543D01*
X27559Y129921D02*
X61663D01*
X69537Y137795D01*
X103839D01*
Y77264D02*
X114173Y66929D01*
X103839Y77264D02*
Y137795D01*
X114173Y66929D02*
X133760D01*
X152264Y85433D01*
X92520Y29528D02*
X128642D01*
X80709Y41339D02*
X92520Y29528D01*
X78527Y94488D02*
X80496Y96457D01*
X80709D01*
D39*
X331717Y269118D02*
G03*
X334646Y276189I-7071J7071D01*
G01*
X288657Y422760D02*
G03*
X281586Y425689I-7071J-7071D01*
G01*
X96850Y419685D02*
X97568D01*
X98631Y418622D02*
X108110D01*
X97568Y419685D02*
X98631Y418622D01*
X205886Y418366D02*
X215492D01*
X215748Y418110D01*
X205630Y418622D02*
X205886Y418366D01*
X196850Y173622D02*
Y173839D01*
X194882Y175808D02*
Y183976D01*
Y175808D02*
X196850Y173839D01*
X231882Y196850D02*
Y198041D01*
Y168890D02*
Y196850D01*
X215748Y184252D02*
X228346Y196850D01*
X231882D01*
X81172Y445669D02*
X81890D01*
X69685Y444488D02*
X79991D01*
X81172Y445669D01*
X25591Y390551D02*
X86181D01*
X108110Y368622D01*
X11417Y386399D02*
X21439D01*
X25591Y390551D01*
X90533Y396199D02*
X108110Y378622D01*
X11417Y396199D02*
X90533D01*
X11417Y406299D02*
X17209Y412091D01*
X21540D01*
X22047Y412598D01*
X171260Y231594D02*
X204035Y198819D01*
X223622Y294419D02*
X225573Y296370D01*
X223622Y293701D02*
Y294419D01*
X225573Y300179D02*
X227165Y301772D01*
X225573Y296370D02*
Y300179D01*
X314567Y251969D02*
X331717Y269118D01*
X334646Y276189D02*
Y299213D01*
X288657Y422760D02*
X289764Y421654D01*
X271654Y425689D02*
X281586D01*
X197835Y228080D02*
X199303Y229549D01*
X197835Y227362D02*
Y228080D01*
X199311Y232480D02*
X200551D01*
X199303Y232472D02*
X199311Y232480D01*
X199303Y229549D02*
Y232472D01*
X240158Y336397D02*
Y336614D01*
X184055Y231791D02*
Y231988D01*
X192028Y239961D01*
X200551D01*
X184055Y240650D02*
Y337047D01*
X205630Y358622D01*
X170354Y107362D02*
X231882Y168890D01*
X208898Y221026D02*
X231882Y198041D01*
X133858Y222441D02*
Y231791D01*
Y222441D02*
X153543Y202756D01*
Y193976D02*
Y202756D01*
X239370Y342520D02*
X239567D01*
X240004Y336768D02*
Y341886D01*
Y336768D02*
X240158Y336614D01*
X239370Y342520D02*
X240004Y341886D01*
X259996Y360083D02*
X260508D01*
X262697Y357894D02*
X265748D01*
X260508Y360083D02*
X262697Y357894D01*
X259842Y360236D02*
X259996Y360083D01*
X255488Y356299D02*
X258787Y353000D01*
X248819Y356299D02*
X255488D01*
X239567D02*
X243941Y360673D01*
Y362051D02*
X244094Y362205D01*
X239370Y356299D02*
X239567D01*
X243941Y360673D02*
Y362051D01*
X266591Y387949D02*
X271654Y393012D01*
X265902Y387949D02*
X266591D01*
X271654Y393012D02*
Y393209D01*
X265748Y387795D02*
X265902Y387949D01*
X157480Y107362D02*
X170354D01*
X208898Y221026D02*
Y236221D01*
X175197Y183976D02*
X194882D01*
X153543D02*
X175197D01*
X258787Y353000D02*
X265642D01*
X265748Y352894D01*
X128642Y77559D02*
Y78041D01*
X157480Y106880D01*
Y107362D01*
X211693Y198819D02*
X216535Y193976D01*
X204035Y198819D02*
X211693D01*
X216535Y193976D02*
X216535D01*
X171260Y231594D02*
Y231791D01*
X161417Y206693D02*
X184134D01*
X194882Y195945D01*
X159449Y202756D02*
X166417D01*
X175197Y193976D01*
X145669Y216535D02*
X159449Y202756D01*
X145669Y216535D02*
Y231791D01*
X157480Y210630D02*
X161417Y206693D01*
X157480Y210630D02*
Y231791D01*
X145669Y240650D02*
Y250000D01*
X137795Y257874D02*
X145669Y250000D01*
X137795Y257874D02*
Y308937D01*
X108110Y338622D02*
X137795Y308937D01*
X133858Y240650D02*
Y302874D01*
X108110Y328622D02*
X133858Y302874D01*
D40*
X64173Y454724D02*
X179528D01*
X205630Y428622D01*
X53937Y444488D02*
X64173Y454724D01*
X157480Y254429D02*
X171260Y240650D01*
X175886Y99114D02*
X177165Y100394D01*
X175886Y77559D02*
Y99114D01*
X177165Y100394D02*
Y102362D01*
X240158Y165354D01*
X218504Y224410D02*
X240158Y202756D01*
Y165354D02*
Y202756D01*
X218504Y224410D02*
Y242126D01*
X212598Y248031D02*
Y263779D01*
Y248031D02*
X218504Y242126D01*
X157480Y254429D02*
Y364173D01*
Y382528D01*
Y364173D02*
X179134Y342520D01*
X157480Y240650D02*
Y254429D01*
X202099Y427146D02*
X204154D01*
X205630Y428622D01*
X157480Y382528D02*
X202099Y427146D01*
D41*
X157480Y148543D02*
Y150000D01*
X156693Y150787D02*
X157480Y150000D01*
X253167Y340963D02*
X261706D01*
X262456Y341713D01*
X248819Y336614D02*
X253167Y340963D01*
X262456Y341713D02*
X264567D01*
X265748Y342894D01*
X205630Y358347D02*
X205709Y358268D01*
X205630Y358347D02*
Y358622D01*
D42*
X227165Y316732D02*
Y322835D01*
Y310630D02*
Y316732D01*
X215276Y328622D02*
X227165Y316732D01*
X205630Y328622D02*
X215276D01*
X205630D02*
X206299Y327953D01*
X227165Y331988D02*
Y340551D01*
X236221Y349606D01*
X253543D01*
X255256Y347894D01*
X265748D01*
X209295Y339511D02*
X271654Y401870D01*
X206519Y339511D02*
X209295D01*
X205630Y338622D02*
X206519Y339511D01*
X271654Y401870D02*
Y402067D01*
Y416831D01*
D43*
X334646Y19685D02*
D03*
X19685D02*
D03*
X334646Y452756D02*
D03*
X19685D02*
D03*
D44*
X96850Y419685D02*
D03*
X215748Y418110D02*
D03*
X81890Y445669D02*
D03*
X22047Y412598D02*
D03*
X223622Y293701D02*
D03*
X314567Y251969D02*
D03*
X212598Y263779D02*
D03*
X179134Y342520D02*
D03*
M02*
