M48
;Layer_Color=9474304
;FILE_FORMAT=2:4
INCH,TZ
;TYPE=PLATED
T1F00S00C0.0157
T2F00S00C0.0335
T3F00S00C0.0394
T4F00S00C0.0402
T5F00S00C0.0472
T6F00S00C0.0551
T7F00S00C0.0709
T8F00S00C0.0728
T9F00S00C0.1280
%
T01
X1268Y1319
X1068Y1969
X1319Y2618
X1969Y2869
X2618Y2618
X2869Y1969
X2618Y1368
X1969Y1068
X32765Y1319
X32565Y1969
X32815Y2618
X33465Y2869
X34115Y2618
X34365Y1969
X34115Y1368
X33465Y1068
X33425Y26929
X32244Y27047
X31457Y25197
X35039Y27165
X35157Y30472
X29094Y30000
X29291Y27126
X21260Y26378
X22362Y29370
X19783Y22736
X19685Y17362
X9685Y41968
X8189Y44567
X2618Y44676
X2869Y45276
X2618Y45926
X1969Y46176
X1319Y45926
X1068Y45276
X1268Y44626
X1969Y44376
X2362Y40945
X21575Y41811
X26575Y38780
X29055Y38858
X29134Y36654
X29094Y33307
X24016Y33661
X24409Y36220
X25984Y36024
X17913Y34252
X29449Y42559
X32205
X33858Y42677
X34961Y42520
X35118Y40787
X35157Y38346
X35079Y36614
X35039Y35787
X35079Y34370
X35039Y33425
X32244Y34331
X32283Y35669
X32765Y44626
X32565Y45276
X32815Y45926
X33465Y46176
X34115Y45926
X34365Y45276
X34115Y44676
X33465Y44376
T02
X17520Y18398
Y19398
X19488
Y18398
X21575Y18425
Y19425
X15354Y19398
Y18398
X11417Y18201
Y19201
T03
X8071Y4134
Y9646
X20563Y28862
Y29862
Y30862
X10811
Y29862
Y28862
Y31862
Y32862
Y33862
Y34862
Y35862
Y36862
Y37862
Y38862
Y39862
Y40862
Y41862
Y42862
X20563
Y41862
Y40862
Y39862
Y38862
Y37862
Y36862
Y35862
Y34862
Y33862
Y32862
Y31862
T04
X1575Y37774
Y38784
Y39764
Y40774
T05
X13583Y10736
Y14854
X15748
Y10736
T06
X12864Y2953
Y7756
X15226Y8543
X17589Y7756
Y2953
T07
X2756Y12992
Y14567
X31890Y29921
X33465
X2756Y19685
Y18110
X5394Y44449
X6969
X31890Y38976
X33465
T08
X2481Y6315
X2480Y7874
Y9433
X2402Y24032
X2402Y25591
Y27150
X2441Y30504
X2441Y32063
Y33622
T09
X1969Y1969
X33465
X1969Y45276
X33465
M30
