G04*
G04 #@! TF.GenerationSoftware,Altium Limited,Altium Designer,23.3.1 (30)*
G04*
G04 Layer_Color=16711935*
%FSLAX25Y25*%
%MOIN*%
G70*
G04*
G04 #@! TF.SameCoordinates,EAEFBA70-669C-4C4F-B3AB-389A7F0D303D*
G04*
G04*
G04 #@! TF.FilePolarity,Negative*
G04*
G01*
G75*
%ADD23C,0.10039*%
G04:AMPARAMS|DCode=24|XSize=110.24mil|YSize=110.24mil|CornerRadius=27.56mil|HoleSize=0mil|Usage=FLASHONLY|Rotation=180.000|XOffset=0mil|YOffset=0mil|HoleType=Round|Shape=RoundedRectangle|*
%AMROUNDEDRECTD24*
21,1,0.11024,0.05512,0,0,180.0*
21,1,0.05512,0.11024,0,0,180.0*
1,1,0.05512,-0.02756,0.02756*
1,1,0.05512,0.02756,0.02756*
1,1,0.05512,0.02756,-0.02756*
1,1,0.05512,-0.02756,-0.02756*
%
%ADD24ROUNDEDRECTD24*%
%ADD25C,0.11024*%
G04:AMPARAMS|DCode=26|XSize=67.72mil|YSize=67.72mil|CornerRadius=16.93mil|HoleSize=0mil|Usage=FLASHONLY|Rotation=90.000|XOffset=0mil|YOffset=0mil|HoleType=Round|Shape=RoundedRectangle|*
%AMROUNDEDRECTD26*
21,1,0.06772,0.03386,0,0,90.0*
21,1,0.03386,0.06772,0,0,90.0*
1,1,0.03386,0.01693,0.01693*
1,1,0.03386,0.01693,-0.01693*
1,1,0.03386,-0.01693,-0.01693*
1,1,0.03386,-0.01693,0.01693*
%
%ADD26ROUNDEDRECTD26*%
%ADD27C,0.06772*%
G04:AMPARAMS|DCode=28|XSize=110.24mil|YSize=110.24mil|CornerRadius=27.56mil|HoleSize=0mil|Usage=FLASHONLY|Rotation=270.000|XOffset=0mil|YOffset=0mil|HoleType=Round|Shape=RoundedRectangle|*
%AMROUNDEDRECTD28*
21,1,0.11024,0.05512,0,0,270.0*
21,1,0.05512,0.11024,0,0,270.0*
1,1,0.05512,-0.02756,-0.02756*
1,1,0.05512,-0.02756,0.02756*
1,1,0.05512,0.02756,0.02756*
1,1,0.05512,0.02756,-0.02756*
%
%ADD28ROUNDEDRECTD28*%
%ADD29R,0.07874X0.07874*%
%ADD30C,0.07874*%
%ADD31C,0.08268*%
%ADD32C,0.37008*%
%ADD33C,0.07600*%
%ADD34C,0.06102*%
G04:AMPARAMS|DCode=35|XSize=61.02mil|YSize=61.02mil|CornerRadius=15.26mil|HoleSize=0mil|Usage=FLASHONLY|Rotation=90.000|XOffset=0mil|YOffset=0mil|HoleType=Round|Shape=RoundedRectangle|*
%AMROUNDEDRECTD35*
21,1,0.06102,0.03051,0,0,90.0*
21,1,0.03051,0.06102,0,0,90.0*
1,1,0.03051,0.01526,0.01526*
1,1,0.03051,0.01526,-0.01526*
1,1,0.03051,-0.01526,-0.01526*
1,1,0.03051,-0.01526,0.01526*
%
%ADD35ROUNDEDRECTD35*%
%ADD36C,0.06693*%
%ADD37C,0.03150*%
D23*
X24415Y305038D02*
D03*
X24409Y320630D02*
D03*
Y336221D02*
D03*
X24022Y240313D02*
D03*
X24016Y255906D02*
D03*
Y271496D02*
D03*
X24803Y94331D02*
D03*
Y78740D02*
D03*
X24809Y63148D02*
D03*
D24*
X53937Y444488D02*
D03*
X318898Y389764D02*
D03*
Y299213D02*
D03*
D25*
X69685Y444488D02*
D03*
X27559Y145669D02*
D03*
Y196850D02*
D03*
X334646Y389764D02*
D03*
Y299213D02*
D03*
D26*
X11417Y376299D02*
D03*
D27*
Y386399D02*
D03*
Y396199D02*
D03*
Y406299D02*
D03*
D28*
X27559Y129921D02*
D03*
Y181102D02*
D03*
D29*
X157480Y148543D02*
D03*
X135827D02*
D03*
D30*
X157480Y107362D02*
D03*
X135827D02*
D03*
D31*
X152264Y85433D02*
D03*
X128642Y77559D02*
D03*
Y29528D02*
D03*
X175886D02*
D03*
Y77559D02*
D03*
D32*
X334646Y19685D02*
D03*
X19685D02*
D03*
X334646Y452756D02*
D03*
X19685D02*
D03*
D33*
X108110Y428622D02*
D03*
Y418622D02*
D03*
Y408622D02*
D03*
Y398622D02*
D03*
Y388622D02*
D03*
Y378622D02*
D03*
Y368622D02*
D03*
Y358622D02*
D03*
Y348622D02*
D03*
Y338622D02*
D03*
Y328622D02*
D03*
Y318622D02*
D03*
Y308622D02*
D03*
Y298622D02*
D03*
Y288622D02*
D03*
X205630Y428622D02*
D03*
Y418622D02*
D03*
Y408622D02*
D03*
Y398622D02*
D03*
Y388622D02*
D03*
Y378622D02*
D03*
Y368622D02*
D03*
Y358622D02*
D03*
Y348622D02*
D03*
Y338622D02*
D03*
Y328622D02*
D03*
Y318622D02*
D03*
Y308622D02*
D03*
Y298622D02*
D03*
Y288622D02*
D03*
D34*
X175197Y183976D02*
D03*
X153543D02*
D03*
X215748Y184252D02*
D03*
X194882Y183976D02*
D03*
X114173Y192008D02*
D03*
D35*
X175197Y193976D02*
D03*
X153543D02*
D03*
X215748Y194252D02*
D03*
X194882Y193976D02*
D03*
X114173Y182008D02*
D03*
D36*
X80709Y96457D02*
D03*
Y41339D02*
D03*
D37*
X341146Y13685D02*
D03*
Y26185D02*
D03*
X328146D02*
D03*
X327646Y13185D02*
D03*
X325646Y19685D02*
D03*
X343646D02*
D03*
X334646Y10685D02*
D03*
Y28685D02*
D03*
X26185Y13685D02*
D03*
Y26185D02*
D03*
X13185D02*
D03*
X12685Y13185D02*
D03*
X10685Y19685D02*
D03*
X28685D02*
D03*
X19685Y10685D02*
D03*
Y28685D02*
D03*
X341146Y446756D02*
D03*
Y459256D02*
D03*
X328146D02*
D03*
X327646Y446256D02*
D03*
X325646Y452756D02*
D03*
X343646D02*
D03*
X334646Y443756D02*
D03*
Y461756D02*
D03*
X26185Y446756D02*
D03*
Y459256D02*
D03*
X13185D02*
D03*
X12685Y446256D02*
D03*
X10685Y452756D02*
D03*
X28685D02*
D03*
X19685Y443756D02*
D03*
Y461756D02*
D03*
M02*
