G04*
G04 #@! TF.GenerationSoftware,Altium Limited,Altium Designer,23.3.1 (30)*
G04*
G04 Layer_Color=8421504*
%FSLAX25Y25*%
%MOIN*%
G70*
G04*
G04 #@! TF.SameCoordinates,E3682060-2EA9-4B6D-9F72-6D3ECC513FB3*
G04*
G04*
G04 #@! TF.FilePolarity,Positive*
G04*
G01*
G75*
%ADD18R,0.03622X0.05433*%
G04:AMPARAMS|DCode=19|XSize=59.06mil|YSize=62.99mil|CornerRadius=14.76mil|HoleSize=0mil|Usage=FLASHONLY|Rotation=0.000|XOffset=0mil|YOffset=0mil|HoleType=Round|Shape=RoundedRectangle|*
%AMROUNDEDRECTD19*
21,1,0.05906,0.03347,0,0,0.0*
21,1,0.02953,0.06299,0,0,0.0*
1,1,0.02953,0.01476,-0.01673*
1,1,0.02953,-0.01476,-0.01673*
1,1,0.02953,-0.01476,0.01673*
1,1,0.02953,0.01476,0.01673*
%
%ADD19ROUNDEDRECTD19*%
G04:AMPARAMS|DCode=20|XSize=59.06mil|YSize=62.99mil|CornerRadius=7.38mil|HoleSize=0mil|Usage=FLASHONLY|Rotation=270.000|XOffset=0mil|YOffset=0mil|HoleType=Round|Shape=RoundedRectangle|*
%AMROUNDEDRECTD20*
21,1,0.05906,0.04823,0,0,270.0*
21,1,0.04429,0.06299,0,0,270.0*
1,1,0.01476,-0.02411,-0.02215*
1,1,0.01476,-0.02411,0.02215*
1,1,0.01476,0.02411,0.02215*
1,1,0.01476,0.02411,-0.02215*
%
%ADD20ROUNDEDRECTD20*%
G04:AMPARAMS|DCode=21|XSize=48.42mil|YSize=23.62mil|CornerRadius=5.91mil|HoleSize=0mil|Usage=FLASHONLY|Rotation=0.000|XOffset=0mil|YOffset=0mil|HoleType=Round|Shape=RoundedRectangle|*
%AMROUNDEDRECTD21*
21,1,0.04842,0.01181,0,0,0.0*
21,1,0.03661,0.02362,0,0,0.0*
1,1,0.01181,0.01831,-0.00591*
1,1,0.01181,-0.01831,-0.00591*
1,1,0.01181,-0.01831,0.00591*
1,1,0.01181,0.01831,0.00591*
%
%ADD21ROUNDEDRECTD21*%
%ADD22R,0.08661X0.02559*%
D18*
X104114Y137008D02*
D03*
X111634D02*
D03*
D19*
X170866Y239862D02*
D03*
Y231004D02*
D03*
X145669Y240650D02*
D03*
Y231791D02*
D03*
X133858Y240650D02*
D03*
Y231791D02*
D03*
X227165Y322736D02*
D03*
Y331594D02*
D03*
Y301772D02*
D03*
Y310630D02*
D03*
X157480Y231791D02*
D03*
Y240650D02*
D03*
X184055Y231791D02*
D03*
Y240650D02*
D03*
X271654Y416831D02*
D03*
Y425689D02*
D03*
Y393209D02*
D03*
Y402067D02*
D03*
D20*
X239370Y356299D02*
D03*
X248819D02*
D03*
Y342520D02*
D03*
X239370D02*
D03*
D21*
X200551Y239961D02*
D03*
Y232480D02*
D03*
X208898Y236221D02*
D03*
D22*
X293307Y342894D02*
D03*
Y347894D02*
D03*
Y352894D02*
D03*
Y357894D02*
D03*
X265748D02*
D03*
Y352894D02*
D03*
Y347894D02*
D03*
Y342894D02*
D03*
M02*
